<?xml version="1.0" encoding="UTF-8"?>
<svg version="1.1" xmlns="http://www.w3.org/2000/svg" width="64" height="64">
<path d="M0 0 C14.52 0 29.04 0 44 0 C44 14.52 44 29.04 44 44 C29.48 44 14.96 44 0 44 C0 29.48 0 14.96 0 0 Z M4 4 C4 15.88 4 27.76 4 40 C15.88 40 27.76 40 40 40 C40 28.12 40 16.24 40 4 C28.12 4 16.24 4 4 4 Z " fill="#000000" transform="translate(10,10)"/>
<path d="M0 0 C0.45890625 0.433125 0.9178125 0.86625 1.390625 1.3125 C2.00421875 1.869375 2.6178125 2.42625 3.25 3 C3.85328125 3.556875 4.4565625 4.11375 5.078125 4.6875 C7.162653 6.37597443 7.162653 6.37597443 11 6 C12.9792785 4.7167443 12.9792785 4.7167443 14.75 3 C15.67039062 2.1646875 15.67039062 2.1646875 16.609375 1.3125 C17.06828125 0.879375 17.5271875 0.44625 18 0 C18.99 1.32 19.98 2.64 21 4 C18.69 6.31 16.38 8.62 14 11 C15.48868286 13.97736572 16.53878822 15.83438636 18.625 18.25 C19.40875 19.1575 20.1925 20.065 21 21 C19.68 21.99 18.36 22.98 17 24 C14.69 21.69 12.38 19.38 10 17 C6.09567131 18.95216435 3.96160056 20.87386607 1 24 C-0.32 23.34 -1.64 22.68 -3 22 C-1.44499019 18.18315774 1.03595495 15.80804268 4 13 C2.33248852 9.05860922 -0.22710649 6.2107188 -3 3 C-2.01 2.01 -1.02 1.02 0 0 Z " fill="#000000" transform="translate(23,20)"/>
</svg>
