<?xml version="1.0" encoding="UTF-8"?>
<svg version="1.1" xmlns="http://www.w3.org/2000/svg" width="64" height="64">
<path d="M0 0 C14.52 0 29.04 0 44 0 C44 14.52 44 29.04 44 44 C29.48 44 14.96 44 0 44 C0 29.48 0 14.96 0 0 Z M4 4 C4 15.88 4 27.76 4 40 C15.88 40 27.76 40 40 40 C40 28.12 40 16.24 40 4 C28.12 4 16.24 4 4 4 Z " fill="#000000" transform="translate(10,10)"/>
<path d="M0 0 C9.24 0 18.48 0 28 0 C28 1.32 28 2.64 28 4 C18.76 4 9.52 4 0 4 C0 2.68 0 1.36 0 0 Z " fill="#000000" transform="translate(18,40)"/>
</svg>
