<?xml version="1.0" standalone="no"?>
<!DOCTYPE svg PUBLIC "-//W3C//DTD SVG 20010904//EN"
 "http://www.w3.org/TR/2001/REC-SVG-20010904/DTD/svg10.dtd">
<svg version="1.0" xmlns="http://www.w3.org/2000/svg"
 width="3464.000000pt" height="3464.000000pt" viewBox="0 0 3464.000000 3464.000000"
 preserveAspectRatio="xMidYMid meet">

<g transform="translate(0.000000,3464.000000) scale(0.100000,-0.100000)"
fill="#000000" stroke="none">
<path d="M2 30968 l3 -3673 85 -41 c222 -108 256 -124 275 -124 11 0 27 -9 35
-20 9 -12 26 -20 42 -20 20 0 42 -13 73 -45 25 -24 45 -49 45 -55 0 -5 7 -10
16 -10 8 0 22 -6 30 -14 27 -28 15 -56 -52 -122 -50 -49 -73 -64 -95 -64 -16
0 -29 -4 -29 -10 0 -5 -13 -10 -30 -10 -16 0 -33 -6 -37 -14 -4 -8 -37 -20
-73 -26 -36 -7 -72 -16 -81 -20 -9 -5 -60 -12 -113 -16 l-96 -7 1 -7661 c0
-4213 3 -7655 6 -7648 2 6 17 12 32 12 15 0 33 9 41 20 8 12 26 20 42 20 21 0
28 5 28 20 0 17 7 20 45 20 38 0 45 3 45 20 0 17 7 20 40 20 33 0 40 3 40 20
0 13 7 20 20 20 13 0 20 7 20 20 0 13 7 20 20 20 16 0 20 7 20 33 0 21 7 38
20 47 11 8 20 25 20 38 0 20 39 72 55 72 10 0 29 23 45 55 8 17 26 46 40 65
15 19 34 51 43 70 8 19 27 46 41 59 14 14 26 28 26 33 0 4 18 34 40 65 22 32
40 63 40 69 0 7 7 14 15 18 9 3 19 14 23 24 4 10 43 72 86 137 124 188 181
276 212 328 16 26 50 80 76 120 26 40 48 79 48 87 0 9 4 20 9 25 6 6 33 55 60
110 28 55 55 107 61 115 5 8 21 42 36 75 36 84 130 274 154 310 11 17 23 37
26 45 24 59 37 82 50 87 8 3 14 10 14 15 0 31 171 201 255 255 28 17 62 41 77
52 14 12 30 21 35 21 5 0 22 13 38 30 16 16 34 30 40 30 6 0 22 12 36 26 13
14 38 32 56 41 18 8 33 19 33 24 0 12 72 78 86 79 5 0 22 13 37 28 15 16 43
35 62 42 19 8 35 19 35 26 0 7 17 21 37 30 89 39 182 86 185 92 7 15 91 52
119 52 15 0 43 8 62 19 18 10 49 22 68 26 19 4 48 13 64 20 17 7 63 17 103 24
91 14 432 15 432 1 0 -5 11 -10 24 -10 14 0 28 -4 31 -10 3 -5 20 -10 36 -10
22 0 42 -13 84 -55 l55 -55 0 -70 c0 -63 -2 -70 -20 -70 -13 0 -20 -7 -20 -20
0 -13 -7 -20 -20 -20 -13 0 -20 -7 -20 -20 0 -14 -7 -20 -21 -20 -22 0 -49
-22 -49 -39 0 -6 -20 -11 -48 -11 -36 0 -51 -5 -62 -20 -8 -11 -26 -20 -40
-20 -14 0 -32 -9 -40 -20 -9 -12 -26 -20 -42 -20 -36 0 -118 -78 -118 -113 0
-12 -9 -29 -20 -37 -18 -13 -20 -26 -20 -133 l0 -118 35 -34 c19 -19 43 -35
54 -35 11 0 23 -4 26 -10 4 -6 57 -10 125 -10 68 0 121 4 125 10 3 6 17 10 31
10 13 0 24 5 24 10 0 6 15 10 34 10 19 0 38 5 41 10 3 6 15 10 27 10 11 0 33
14 48 30 15 17 38 30 50 30 12 0 38 17 60 40 21 22 41 40 45 40 8 0 75 68 75
76 0 3 14 19 30 34 17 15 30 35 30 44 0 9 8 16 20 16 13 0 20 7 20 20 0 13 7
20 20 20 17 0 20 7 20 40 0 33 3 40 20 40 13 0 20 7 20 20 0 15 7 20 25 20 20
0 25 5 25 25 0 18 5 25 20 25 13 0 20 7 20 20 0 18 7 20 85 20 78 0 85 -2 85
-20 0 -17 7 -20 45 -20 40 0 45 -2 45 -23 0 -12 9 -29 20 -37 11 -8 20 -26 20
-40 0 -14 9 -32 20 -40 12 -8 20 -26 20 -42 0 -15 5 -30 10 -33 6 -3 10 -28
10 -56 0 -27 5 -49 10 -49 6 0 10 -30 10 -69 0 -39 5 -73 10 -76 6 -3 10 -20
10 -36 0 -37 20 -121 31 -134 5 -5 9 -21 9 -36 0 -14 7 -46 15 -69 8 -24 18
-68 21 -99 4 -31 12 -62 18 -70 15 -19 14 -414 -1 -433 -6 -7 -13 -40 -16 -73
-14 -130 -26 -212 -36 -235 -5 -14 -24 -72 -42 -130 -17 -58 -47 -136 -66
-173 -34 -68 -100 -169 -113 -175 -4 -1 -33 -28 -65 -58 -63 -59 -197 -137
-255 -149 -33 -7 -80 -20 -175 -50 -22 -7 -95 -19 -162 -26 -143 -15 -272 -4
-414 35 -86 24 -207 80 -222 104 -4 6 -13 12 -19 12 -6 0 -37 25 -71 56 -33
30 -76 66 -96 78 -20 13 -42 31 -50 40 -8 9 -29 24 -47 32 -19 9 -34 20 -34
25 0 5 -10 9 -22 9 -26 1 -58 22 -58 39 0 16 -216 15 -227 -2 -4 -7 -29 -23
-55 -36 -26 -13 -55 -32 -64 -42 -10 -11 -22 -19 -28 -19 -7 0 -32 -20 -56
-45 -24 -25 -49 -45 -55 -45 -6 0 -96 -86 -200 -191 -216 -217 -247 -248 -273
-263 -11 -6 -39 -24 -63 -41 -72 -48 -130 -75 -165 -75 -18 0 -36 -4 -39 -10
-8 -12 -242 -14 -249 -1 -3 4 -31 11 -62 15 -32 4 -71 13 -88 20 -17 8 -69 20
-116 26 -47 7 -93 16 -102 21 -10 5 -58 9 -108 9 -53 0 -90 4 -90 10 0 6 -25
10 -55 10 -30 0 -55 -4 -55 -10 0 -6 -52 -10 -135 -10 -128 0 -135 -1 -135
-20 0 -13 -7 -20 -20 -20 -13 0 -20 -7 -20 -20 0 -17 -7 -20 -40 -20 l-40 0 0
-40 c0 -33 -3 -40 -20 -40 -15 0 -20 -7 -20 -25 0 -20 -5 -25 -25 -25 -20 0
-25 -5 -25 -26 0 -17 -14 -39 -40 -64 -22 -21 -40 -46 -40 -54 0 -9 -4 -16
-10 -16 -5 0 -10 -6 -10 -14 0 -7 -14 -27 -30 -44 l-30 -32 0 -4687 0 -4688
60 -28 c33 -15 60 -31 60 -35 0 -4 15 -13 33 -21 83 -34 135 -63 157 -86 13
-14 28 -25 32 -25 5 0 47 -35 94 -77 77 -72 89 -88 143 -198 107 -216 148
-392 157 -683 5 -157 10 -205 20 -209 9 -3 14 -23 14 -57 1 -58 17 -125 43
-175 9 -19 17 -46 17 -61 0 -14 5 -31 12 -38 9 -9 137 -12 515 -12 l502 0 48
28 c26 15 64 36 83 45 19 10 42 22 50 27 56 33 130 60 166 60 25 0 44 5 47 13
4 9 6 9 6 0 1 -8 16 -13 39 -13 46 0 102 -25 102 -46 0 -8 7 -14 15 -14 8 0
22 -17 32 -37 9 -21 24 -43 33 -50 12 -10 984 -12 4471 -13 l4455 0 19 78 c10
42 24 91 31 107 12 29 30 81 61 180 37 118 93 343 93 373 0 17 4 32 9 32 11 0
30 149 37 302 7 134 -8 363 -31 461 -51 226 -56 1008 -6 1072 5 5 14 35 21 65
7 30 23 87 35 125 13 39 31 104 40 145 10 41 24 87 31 101 29 58 124 376 141
474 3 17 9 35 13 40 4 6 12 44 19 85 7 41 22 104 32 139 10 35 19 72 19 82 0
21 24 78 78 187 50 101 156 211 237 246 80 34 212 66 273 66 41 0 113 -18 277
-67 10 -4 35 -17 54 -30 20 -14 52 -32 71 -41 19 -9 39 -22 43 -29 4 -7 14
-13 21 -13 8 0 40 -14 71 -30 31 -17 68 -30 81 -30 13 0 24 -4 24 -10 0 -5 11
-10 24 -10 14 0 28 -4 31 -10 3 -5 42 -10 86 -10 72 0 79 2 79 20 0 16 7 20
38 20 26 0 42 6 52 20 8 11 25 20 38 20 24 0 52 21 52 39 0 6 15 11 33 11 21
0 38 7 47 20 8 12 26 20 42 20 23 0 28 4 28 26 0 33 21 54 54 54 19 0 26 5 26
20 0 17 7 20 44 20 38 0 45 3 49 23 l4 22 2 -22 c1 -16 7 -23 21 -23 13 0 20
-7 20 -20 0 -13 7 -20 20 -20 13 0 20 -7 20 -20 0 -13 7 -20 20 -20 13 0 20
-7 20 -20 0 -13 7 -20 20 -20 18 0 20 -7 20 -54 0 -34 -5 -57 -12 -60 -10 -5
-10 -7 0 -12 6 -3 12 -22 12 -43 0 -25 6 -41 20 -51 11 -8 20 -25 20 -38 0
-24 21 -52 39 -52 6 0 11 -15 11 -33 0 -21 7 -38 20 -47 11 -8 20 -24 20 -36
0 -33 40 -104 83 -146 20 -20 37 -39 37 -43 0 -17 72 -75 93 -75 13 0 38 -13
55 -30 18 -17 43 -30 57 -30 14 0 25 -4 25 -10 0 -5 11 -10 24 -10 14 0 28 -4
31 -10 8 -13 72 -13 80 0 3 6 17 10 31 10 17 0 47 22 99 75 41 41 75 79 75 85
0 16 41 83 61 101 11 9 19 29 19 47 0 17 5 34 10 37 6 3 10 21 10 40 0 19 4
37 10 40 5 3 10 23 10 45 0 24 5 40 15 44 9 3 15 18 15 40 0 19 4 38 10 41 6
3 10 15 10 26 0 10 3 19 8 19 11 0 32 51 32 77 0 14 15 39 35 58 29 30 41 35
80 35 25 0 45 5 45 10 0 6 11 10 24 10 14 0 28 -4 31 -10 3 -5 19 -10 36 -10
16 0 29 -4 29 -10 0 -5 17 -10 37 -10 38 0 172 -57 173 -73 0 -12 27 -37 38
-37 6 0 23 -13 39 -30 15 -16 33 -30 38 -30 13 0 85 -72 85 -85 0 -6 13 -23
30 -38 16 -16 30 -37 30 -48 0 -12 7 -19 19 -19 14 0 28 -17 48 -57 15 -32 37
-68 49 -80 12 -12 34 -48 49 -80 15 -32 40 -85 56 -117 16 -32 29 -69 29 -81
0 -27 28 -85 41 -85 5 0 9 -16 9 -35 0 -25 8 -44 30 -67 17 -17 30 -39 30 -50
0 -10 9 -28 20 -40 11 -12 20 -32 20 -45 0 -13 5 -23 10 -23 6 0 10 -13 10
-29 0 -17 5 -33 10 -36 6 -3 10 -19 10 -36 0 -16 5 -29 10 -29 6 0 10 -30 10
-69 0 -39 5 -73 10 -76 6 -3 10 -46 10 -96 0 -53 4 -89 10 -89 6 0 10 -30 10
-69 0 -39 5 -73 10 -76 6 -3 10 -24 10 -45 0 -21 5 -42 10 -45 6 -3 10 -19 10
-34 0 -16 7 -42 15 -57 8 -16 15 -39 15 -51 0 -12 4 -23 8 -25 4 -1 18 -25 31
-53 58 -129 67 -145 79 -145 7 0 16 -10 21 -22 11 -30 126 -138 146 -138 8 0
15 -4 15 -9 0 -14 59 -41 90 -41 14 0 30 -4 36 -10 17 -17 214 26 214 47 0 5
15 14 33 22 17 8 49 29 70 48 20 18 41 33 46 33 5 0 24 16 42 35 118 121 148
155 162 181 9 16 26 41 39 56 33 39 142 200 169 249 8 15 27 50 42 79 16 29
33 58 38 64 5 6 24 36 42 66 18 30 54 82 81 115 67 84 317 325 336 325 9 0 27
12 41 26 13 14 50 38 81 52 32 15 58 33 58 40 0 7 11 17 25 22 14 5 25 14 25
20 0 5 11 10 25 10 14 0 25 5 25 10 0 15 80 12 96 -4 8 -8 14 -18 14 -22 0 -3
8 -14 19 -23 29 -25 61 -88 61 -119 0 -16 4 -32 9 -38 15 -14 34 -299 27 -404
-3 -52 -11 -156 -16 -230 -19 -261 -39 -567 -50 -765 -6 -110 -12 -227 -15
-260 -10 -130 -45 -505 -54 -590 -6 -49 -15 -135 -21 -190 -6 -55 -15 -134
-20 -175 -5 -41 -14 -136 -20 -210 -6 -74 -15 -165 -21 -202 -5 -37 -9 -83 -9
-102 l0 -36 4375 0 4375 0 0 98 c0 105 19 251 45 355 18 70 26 94 61 187 35
89 84 242 84 260 1 8 8 33 16 55 33 87 55 187 74 334 24 184 25 320 6 491 -8
69 -20 177 -26 240 -5 63 -15 160 -22 215 -6 55 -12 213 -12 350 -1 267 8 357
51 525 13 52 28 111 33 130 4 19 13 49 19 65 5 17 17 50 24 75 15 45 38 109
78 210 21 56 54 176 89 330 11 47 24 96 29 110 5 14 19 79 31 145 28 151 49
218 104 327 52 103 73 131 165 207 79 66 90 71 226 105 84 21 110 24 160 17
94 -14 199 -42 211 -57 6 -8 21 -14 32 -14 12 0 43 -12 69 -27 26 -15 69 -37
94 -50 26 -13 54 -32 64 -43 10 -11 31 -20 47 -20 15 0 28 -4 28 -10 0 -5 13
-10 29 -10 17 0 33 -4 36 -10 3 -5 19 -10 36 -10 16 0 29 -4 29 -10 0 -6 42
-10 105 -10 63 0 105 4 105 10 0 6 10 10 23 10 32 0 77 22 77 38 0 20 26 42
50 42 12 0 39 18 60 40 29 30 46 40 69 40 28 0 31 3 31 31 0 36 20 59 52 59
13 0 30 9 38 20 20 27 70 27 70 0 0 -13 7 -20 20 -20 13 0 20 -7 20 -20 0 -15
7 -20 25 -20 20 0 25 -5 25 -25 0 -18 5 -25 20 -25 18 0 20 -7 20 -78 0 -66 3
-80 20 -92 12 -8 20 -26 20 -42 0 -15 5 -28 10 -28 6 0 10 -7 10 -15 0 -8 5
-15 10 -15 6 0 10 -13 10 -28 0 -16 8 -34 20 -42 11 -8 20 -26 20 -40 0 -14 9
-32 20 -40 11 -8 20 -24 20 -35 0 -12 9 -40 20 -63 11 -22 20 -46 20 -52 0 -5
5 -10 10 -10 6 0 46 -36 90 -80 44 -44 87 -80 97 -80 10 0 32 -14 50 -30 18
-17 41 -30 51 -30 11 0 22 -8 25 -19 6 -26 62 -51 113 -51 23 0 44 -4 46 -10
2 -5 52 -10 116 -11 61 0 112 -5 112 -10 0 -5 27 -9 60 -9 53 0 60 2 60 20 0
13 7 20 20 20 11 0 20 5 20 10 0 6 5 10 11 10 30 0 39 30 39 129 0 56 -4 103
-10 106 -5 3 -10 17 -10 31 0 15 -6 24 -15 24 -10 0 -15 10 -15 28 0 16 -23
73 -50 127 -28 55 -56 117 -62 139 -7 23 -29 75 -50 116 -21 41 -38 80 -38 87
0 6 -18 48 -41 92 -50 99 -105 259 -120 349 -6 37 -15 74 -19 83 -5 9 -10 94
-12 189 -2 132 0 174 10 177 8 3 12 26 12 69 0 35 4 72 9 82 15 29 51 157 51
181 0 12 9 41 20 63 11 23 20 49 20 58 0 8 6 25 14 36 8 11 33 72 54 135 22
63 45 125 50 139 6 14 32 79 58 145 25 66 86 201 135 300 86 173 97 194 119
233 6 9 15 28 21 42 6 14 19 43 29 65 26 59 78 224 85 272 4 24 11 45 16 49 5
3 9 57 9 120 0 95 -3 114 -15 114 -10 0 -15 10 -15 29 0 17 -4 33 -10 36 -5 3
-10 17 -10 31 0 13 -4 24 -10 24 -5 0 -10 11 -10 24 0 13 -9 41 -19 63 -34 68
-51 111 -51 128 0 9 -9 36 -20 60 -11 23 -23 69 -26 102 -4 32 -11 64 -17 71
-5 7 -10 83 -10 175 0 141 3 170 21 221 12 33 22 68 22 79 0 45 42 153 85 217
30 45 48 80 59 112 3 10 13 18 23 18 12 0 25 15 36 40 19 44 189 220 213 220
8 0 14 7 14 15 0 9 9 15 23 15 12 0 29 9 37 20 13 17 26 20 102 20 81 0 88 -2
88 -20 0 -15 7 -20 25 -20 23 0 25 -4 25 -45 0 -38 3 -45 20 -45 16 0 20 -7
20 -30 0 -16 -4 -30 -10 -30 -5 0 -10 -20 -10 -44 0 -25 -5 -48 -10 -51 -5 -3
-10 -40 -10 -81 0 -43 -4 -74 -10 -74 -6 0 -10 -90 -10 -250 0 -160 4 -250 10
-250 6 0 10 -22 10 -49 0 -28 5 -53 10 -56 5 -3 10 -17 10 -31 0 -13 5 -24 10
-24 6 0 10 -13 10 -28 0 -16 8 -34 20 -42 12 -8 20 -26 20 -42 0 -22 19 -47
85 -113 47 -47 88 -85 93 -85 4 0 14 -9 22 -20 8 -11 25 -20 38 -20 24 0 52
-21 52 -39 0 -6 14 -11 30 -11 17 0 30 -4 30 -10 0 -5 9 -10 19 -10 11 0 36
-8 58 -19 21 -10 67 -33 102 -50 35 -17 76 -31 92 -31 15 0 31 -4 34 -10 3 -5
20 -10 36 -10 17 0 49 -9 71 -20 23 -11 52 -20 63 -20 12 0 57 -18 100 -40 45
-23 92 -40 111 -40 19 0 34 -4 34 -9 0 -12 210 -114 290 -141 36 -12 101 -39
145 -60 44 -21 98 -44 120 -52 22 -7 53 -23 68 -35 16 -13 33 -23 39 -23 5 0
29 -12 52 -27 22 -16 52 -33 66 -39 24 -11 137 -68 291 -145 39 -20 76 -43 81
-52 4 -9 47 -34 94 -57 46 -23 96 -53 109 -66 13 -13 29 -24 34 -24 15 0 83
-40 101 -59 8 -9 27 -22 43 -30 15 -8 27 -17 27 -20 0 -3 11 -19 25 -35 l25
-29 0 6906 0 6907 -108 0 c-96 0 -109 2 -122 20 -12 17 -26 20 -80 20 -54 0
-68 3 -80 20 -8 11 -22 20 -32 20 -11 0 -18 7 -18 20 0 15 -7 20 -25 20 -18 0
-25 5 -25 20 0 13 -7 20 -20 20 -15 0 -20 7 -20 25 0 18 5 25 20 25 13 0 20 7
20 20 0 18 7 20 75 20 43 0 75 4 75 10 0 6 18 10 40 10 22 0 40 -4 40 -10 0
-6 42 -10 105 -10 63 0 105 -4 105 -10 0 -5 9 -10 19 -10 11 0 22 -6 24 -12 3
-7 6 366 6 829 l1 842 -33 36 c-18 20 -44 42 -57 48 -14 7 -30 22 -36 34 -6
12 -22 34 -37 49 -15 15 -27 32 -27 39 0 7 -7 15 -15 19 -8 3 -15 17 -15 31 0
14 -4 25 -10 25 -5 0 -10 24 -10 54 0 30 -4 58 -10 61 -5 3 -10 16 -10 29 0
26 48 126 61 126 5 0 9 9 9 21 0 12 8 23 19 26 11 3 21 13 24 24 3 10 12 19
20 19 8 0 17 9 20 20 3 11 12 20 21 20 9 0 16 7 16 15 0 9 8 18 18 22 9 3 25
13 34 21 17 14 18 53 18 548 l0 533 -42 50 c-24 28 -63 78 -88 111 -70 95 -89
118 -170 203 -41 43 -81 92 -88 108 -8 16 -20 29 -26 29 -7 0 -22 9 -34 20
-12 11 -25 20 -31 20 -5 0 -11 3 -13 8 -6 15 -91 52 -118 52 -16 0 -32 5 -35
10 -3 6 -21 10 -40 10 -19 0 -37 5 -40 10 -4 6 -65 10 -150 10 -85 0 -146 -4
-150 -10 -3 -5 -24 -10 -45 -10 -21 0 -42 -4 -45 -10 -3 -5 -21 -10 -40 -10
-19 0 -37 -4 -40 -10 -3 -5 -17 -10 -31 -10 -13 0 -24 -4 -24 -10 0 -6 -70
-10 -190 -10 -132 0 -190 3 -190 11 0 19 -824 -2 -844 -22 -6 -5 -59 -9 -118
-9 -65 0 -108 -4 -108 -10 0 -6 -55 -10 -145 -10 -80 0 -145 4 -145 9 0 8 -22
15 -97 28 -18 3 -33 9 -33 14 0 5 -11 9 -24 9 -12 0 -37 13 -53 29 -17 15 -35
30 -40 32 -22 8 -153 132 -153 145 0 7 -9 29 -20 49 -11 20 -20 49 -20 65 0
16 -5 32 -10 35 -5 3 -10 42 -10 85 0 43 -4 82 -10 85 -5 3 -10 30 -10 60 0
30 -5 57 -10 60 -13 8 -13 352 0 360 6 3 10 20 10 37 0 20 9 39 30 58 16 15
30 35 30 43 0 9 14 21 30 29 17 7 30 16 30 20 0 5 5 8 11 8 6 0 24 14 39 30
16 17 38 30 52 30 13 0 30 9 38 20 8 12 26 20 42 20 15 0 28 5 28 11 0 19 28
39 54 39 14 0 26 5 26 10 0 6 7 10 15 10 8 0 15 5 15 10 0 6 13 10 28 10 16 0
34 8 42 20 11 15 26 20 60 20 34 0 49 5 60 20 11 15 26 20 65 20 39 0 54 5 65
20 12 17 26 20 80 20 54 0 68 3 80 20 12 17 26 20 83 20 67 0 97 12 97 39 0 6
20 11 48 11 36 0 51 5 62 20 12 17 26 20 85 20 59 0 73 3 85 20 11 15 26 20
62 20 41 0 48 3 48 20 0 19 7 20 104 20 59 0 108 4 111 10 3 6 17 10 31 10 13
0 24 5 24 10 0 6 107 10 300 10 293 0 300 0 300 20 0 18 7 20 65 20 l65 0 0
65 0 65 -375 0 c-368 0 -375 0 -375 20 0 19 -7 20 -215 20 -137 0 -215 4 -215
10 0 6 -22 10 -49 10 -28 0 -53 5 -56 10 -4 6 -62 10 -141 10 -83 0 -134 4
-134 10 0 6 -13 10 -30 10 -16 0 -30 4 -30 8 0 5 -44 12 -97 16 -54 4 -127 11
-163 16 -36 5 -126 16 -200 25 -74 8 -148 20 -164 25 -16 6 -42 10 -58 10 -39
0 -290 50 -303 61 -13 10 -119 33 -245 54 -124 21 -226 41 -325 65 -125 30
-262 57 -485 95 -113 19 -245 44 -295 56 -49 11 -128 27 -175 35 -287 49 -726
146 -777 172 -10 5 -40 14 -68 21 -87 20 -221 79 -340 150 -59 35 -206 175
-232 221 -30 53 -38 67 -50 81 -5 8 -18 39 -28 69 -10 30 -26 71 -36 90 -10
19 -23 53 -28 75 -35 143 -50 211 -65 290 -8 49 -20 91 -26 93 -5 2 -10 15
-10 29 0 63 -51 195 -114 293 -41 63 -170 190 -194 190 -10 0 -30 8 -43 18
-35 25 -67 42 -81 42 -6 0 -43 15 -82 33 -39 18 -129 48 -201 66 -71 17 -137
35 -145 40 -8 4 -59 14 -113 21 -77 11 -103 11 -118 2 -10 -7 -35 -12 -54 -12
-19 0 -35 -4 -35 -9 0 -13 -59 -41 -87 -41 -31 0 -58 -16 -110 -67 -28 -28
-43 -51 -43 -68 0 -16 -6 -25 -15 -25 -11 0 -15 -12 -15 -46 0 -27 6 -51 15
-60 8 -9 15 -31 15 -49 0 -19 5 -37 10 -40 6 -3 10 -21 10 -40 0 -19 5 -37 10
-40 6 -3 10 -16 10 -28 0 -12 7 -42 16 -67 24 -70 30 -243 10 -310 -17 -57
-56 -123 -91 -153 -32 -28 -138 -76 -194 -88 -48 -10 -186 -8 -254 4 -16 3
-36 12 -45 19 -10 8 -30 20 -45 28 -37 18 -118 96 -143 137 -10 18 -39 65 -63
105 -24 40 -54 89 -67 108 -16 22 -20 36 -13 41 6 4 7 8 3 10 -15 6 -54 89
-54 113 0 12 -5 27 -11 33 -13 13 -27 37 -65 115 -16 31 -36 59 -46 61 -10 3
-18 12 -18 20 0 8 -9 17 -20 20 -11 3 -20 14 -20 25 0 11 -9 22 -20 25 -11 3
-20 12 -20 21 0 9 -6 16 -14 16 -8 0 -40 14 -71 30 -31 17 -68 30 -80 30 -13
0 -36 5 -52 11 -15 5 -29 6 -30 2 -2 -5 -20 -7 -41 -5 -56 5 -268 -67 -407
-138 -66 -34 -127 -68 -135 -75 -8 -7 -26 -16 -40 -20 -14 -4 -32 -13 -40 -21
-9 -7 -42 -25 -75 -40 -33 -14 -76 -33 -95 -42 -19 -9 -62 -24 -95 -33 -33 -9
-94 -27 -135 -38 -110 -31 -327 -39 -440 -17 -292 58 -466 158 -554 319 -64
117 -79 204 -96 558 -13 288 -28 500 -45 644 -33 275 -37 358 -21 429 19 80
55 140 98 163 121 64 294 100 643 134 44 4 107 12 140 19 62 12 221 5 230 -10
3 -4 21 -11 42 -15 20 -4 58 -18 85 -31 26 -13 53 -24 59 -24 16 0 141 -84
164 -110 10 -11 22 -20 27 -20 16 0 135 -116 197 -191 14 -18 38 -45 54 -61
15 -16 27 -33 27 -38 0 -5 21 -23 48 -41 26 -17 53 -40 60 -50 7 -11 34 -28
60 -40 26 -11 61 -27 79 -35 43 -19 221 -19 297 1 35 9 73 28 93 45 18 17 39
30 46 30 8 0 26 14 43 31 16 17 52 46 81 65 54 36 203 189 203 209 0 7 7 27
17 45 20 41 32 224 14 234 -6 4 -11 24 -11 46 0 31 -6 44 -35 69 -19 17 -35
34 -35 39 0 15 -105 109 -140 125 -19 9 -41 25 -48 36 -7 12 -17 21 -22 21 -6
0 -84 36 -174 80 -90 44 -167 80 -171 80 -4 0 -26 13 -49 28 -22 15 -58 36
-78 45 -21 10 -38 22 -38 28 0 5 -10 14 -22 20 -30 13 -56 29 -95 57 -17 12
-35 22 -40 22 -5 0 -38 29 -73 65 -35 36 -70 65 -77 65 -7 0 -19 15 -26 33 -8
17 -24 41 -36 51 -11 11 -21 25 -21 33 0 7 -11 18 -24 24 -13 6 -30 23 -37 38
-22 41 -56 71 -81 71 -13 0 -30 9 -38 20 -11 15 -26 20 -62 20 -26 0 -48 5
-48 10 0 6 -13 10 -29 10 -17 0 -33 5 -36 10 -3 6 -28 10 -56 10 -37 0 -49 4
-49 15 0 8 -9 15 -20 15 -11 0 -35 9 -55 20 -20 11 -48 20 -63 20 -35 0 -202
83 -232 115 -13 14 -28 25 -34 25 -19 0 -156 71 -156 81 0 5 -6 9 -13 9 -8 0
-23 10 -35 23 -28 29 -110 70 -197 97 -22 7 -60 22 -85 33 -78 35 -289 33
-375 -4 -11 -4 -40 -13 -65 -20 -66 -17 -226 -97 -258 -128 -15 -15 -42 -34
-59 -42 -18 -7 -33 -20 -33 -27 0 -8 -9 -16 -20 -19 -13 -4 -20 -14 -20 -30 0
-15 -12 -36 -30 -53 -16 -15 -30 -37 -30 -47 0 -11 -9 -29 -20 -41 -11 -12
-20 -26 -20 -32 0 -5 -4 -10 -10 -10 -6 0 -10 -46 -10 -118 0 -106 2 -119 20
-132 12 -9 20 -26 20 -43 0 -16 10 -38 24 -52 14 -14 39 -54 56 -91 18 -36 37
-67 45 -70 7 -3 23 -26 35 -52 12 -26 26 -55 31 -64 5 -10 9 -31 9 -48 0 -18
6 -33 15 -36 11 -5 15 -23 15 -79 0 -56 -4 -74 -15 -79 -8 -3 -15 -17 -15 -32
0 -15 -8 -34 -18 -43 -9 -9 -23 -28 -31 -43 -8 -16 -36 -38 -68 -54 -30 -14
-57 -32 -60 -39 -2 -8 -20 -21 -39 -30 -19 -9 -34 -20 -34 -25 0 -6 -6 -10
-14 -10 -17 0 -144 -66 -167 -86 -8 -8 -22 -14 -29 -14 -8 0 -30 -10 -49 -23
-20 -13 -56 -37 -81 -53 -25 -16 -54 -37 -65 -46 -70 -61 -102 -86 -117 -94
-40 -22 -310 -281 -353 -339 -38 -51 -168 -185 -181 -185 -6 0 -14 -7 -18 -15
-3 -8 -12 -15 -20 -15 -8 0 -21 -8 -28 -19 -27 -38 -96 -61 -184 -61 -46 0
-86 5 -89 10 -3 6 -22 10 -41 10 -19 0 -34 5 -34 10 0 6 -8 10 -18 10 -28 0
-108 43 -139 76 -32 33 -66 54 -86 54 -7 0 -24 11 -37 25 -29 30 -116 75 -147
75 -12 0 -38 9 -58 20 -20 11 -51 20 -70 20 -18 0 -37 5 -40 10 -3 6 -19 10
-35 10 -16 0 -45 9 -65 20 -20 11 -49 20 -65 20 -16 0 -35 7 -44 15 -8 8 -26
15 -40 15 -14 0 -26 5 -26 10 0 6 -11 10 -24 10 -14 0 -28 5 -31 10 -8 13
-697 14 -710 1 -10 -9 -188 -22 -310 -24 -97 -1 -207 15 -243 35 -18 10 -38
18 -45 18 -23 0 -67 47 -67 71 0 14 -9 31 -20 39 -21 15 -28 50 -10 50 6 0 10
13 10 29 0 20 12 41 40 70 22 22 40 48 40 56 0 8 29 43 65 78 36 35 65 67 65
71 0 4 32 38 70 76 43 42 70 77 70 90 0 23 21 50 39 50 6 0 11 20 11 45 0 38
3 45 20 45 18 0 20 7 20 60 0 53 2 60 20 60 19 0 20 7 20 103 0 91 -2 104 -20
117 -16 12 -20 26 -20 78 0 53 -4 67 -25 87 -13 14 -27 25 -30 25 -10 0 -55
49 -55 60 0 5 -4 10 -10 10 -5 0 -10 11 -10 25 0 34 -120 155 -153 155 -12 0
-29 9 -37 20 -8 11 -19 20 -25 20 -6 0 -17 9 -25 20 -8 11 -22 20 -32 20 -13
0 -18 8 -18 25 0 23 -3 25 -50 25 -27 0 -50 5 -50 10 0 6 -11 10 -24 10 -14 0
-28 5 -31 10 -4 6 -58 10 -130 10 -72 0 -126 -4 -130 -10 -3 -5 -17 -10 -31
-10 -13 0 -24 -4 -24 -10 0 -5 -14 -10 -31 -10 -28 0 -59 -19 -59 -35 0 -15
-75 -75 -92 -75 -11 0 -28 -9 -40 -20 -12 -11 -30 -20 -40 -20 -10 0 -28 -9
-40 -20 -12 -11 -30 -20 -39 -20 -10 0 -21 -4 -24 -10 -3 -5 -19 -10 -35 -10
-15 0 -54 -13 -85 -30 -31 -16 -68 -30 -81 -30 -13 0 -33 -4 -44 -10 -11 -5
-29 -14 -40 -20 -11 -5 -33 -10 -50 -10 -18 0 -33 -6 -36 -15 -4 -8 -12 -15
-19 -15 -7 0 -15 7 -19 15 -3 8 -18 15 -34 15 -15 0 -47 9 -70 20 -22 11 -52
20 -65 20 -13 0 -59 18 -102 40 -43 22 -91 40 -106 40 -16 0 -44 9 -64 20 -20
11 -49 20 -65 20 -16 0 -32 5 -35 10 -3 6 -19 10 -35 10 -15 0 -45 8 -67 19
-21 10 -60 29 -88 42 -27 13 -60 36 -73 51 -34 40 -192 113 -355 165 -62 19
-148 52 -192 73 -44 21 -154 61 -245 90 -91 29 -172 58 -180 65 -8 7 -34 15
-58 19 -46 7 -186 50 -214 66 -10 6 -24 10 -32 10 -7 0 -36 15 -62 33 -46 31
-150 84 -302 153 -35 15 -68 34 -73 40 -11 14 -132 74 -148 74 -5 0 -23 11
-39 25 -16 13 -40 29 -53 35 -28 13 -49 25 -108 65 -24 17 -53 35 -65 42 -12
7 -42 30 -68 53 -26 22 -51 40 -55 40 -5 0 -22 14 -38 30 -16 17 -35 30 -42
30 -7 0 -13 4 -13 9 0 9 -43 31 -155 81 -22 10 -60 23 -83 30 -24 6 -59 20
-78 31 -19 10 -50 19 -69 19 -18 0 -37 5 -40 10 -3 6 -21 10 -40 10 -19 0 -37
5 -40 10 -3 6 -30 10 -59 10 -28 0 -56 4 -62 10 -6 6 -132 10 -332 10 -187 0
-322 4 -322 10 0 5 -57 11 -127 14 -182 7 -243 15 -243 32 0 10 -12 14 -39 14
-34 0 -60 9 -143 51 -10 5 -29 9 -43 9 -14 0 -25 5 -25 10 0 6 -10 10 -23 10
-13 0 -33 9 -45 20 -12 11 -30 20 -40 20 -11 0 -33 14 -50 30 -20 19 -42 30
-60 30 -16 0 -34 8 -42 20 -8 11 -26 20 -40 20 -14 0 -32 9 -40 20 -8 11 -20
20 -27 20 -6 0 -16 6 -20 13 -4 7 -30 23 -58 36 -27 13 -67 32 -88 42 -22 11
-49 19 -62 19 -12 0 -57 18 -100 40 -43 22 -90 40 -104 40 -15 0 -53 13 -86
30 -33 16 -72 30 -87 30 -15 0 -30 5 -33 10 -3 6 -24 10 -45 10 -21 0 -42 5
-45 10 -3 6 -17 10 -30 10 -13 0 -25 4 -27 9 -1 5 -61 27 -133 51 -71 23 -191
71 -265 107 -74 36 -173 81 -220 100 -47 19 -94 40 -105 47 -44 29 -284 125
-360 145 -213 55 176 51 -5055 51 l-4820 0 2 -3672z m12813 684 c68 -13 103
-25 150 -51 22 -11 45 -21 52 -21 7 0 21 -8 31 -17 9 -10 42 -35 72 -55 30
-20 134 -117 230 -216 203 -207 269 -283 344 -392 30 -44 170 -180 185 -180 6
0 11 -6 11 -13 0 -7 9 -19 20 -27 12 -8 20 -26 20 -42 0 -21 5 -28 20 -28 22
0 28 -35 8 -43 -10 -4 -10 -8 1 -15 12 -9 9 -16 -17 -40 -18 -17 -32 -34 -32
-40 0 -16 -93 -102 -134 -124 -22 -11 -45 -25 -52 -32 -104 -99 -166 -162
-183 -184 -65 -85 -91 -124 -124 -192 -154 -314 -240 -450 -331 -525 -59 -48
-210 -123 -291 -145 -182 -50 -356 -52 -895 -10 -69 5 -197 13 -285 16 -350
14 -515 28 -685 59 -107 20 -159 37 -291 95 -175 77 -280 171 -342 303 -61
129 -88 193 -97 226 -5 20 -18 68 -28 106 -30 110 -46 236 -39 317 6 70 38
211 57 253 5 11 27 67 50 125 71 181 175 318 325 424 65 47 201 116 227 116 8
0 18 4 24 8 5 5 63 23 129 41 66 18 159 44 206 57 47 13 95 24 107 24 11 0 47
7 79 15 32 8 85 19 118 24 101 15 369 71 386 80 16 9 214 51 329 69 36 6 97
16 135 22 39 6 97 15 130 20 76 10 314 6 380 -8z m7950 -2192 c3 -5 18 -10 32
-10 36 0 113 -83 113 -122 0 -15 4 -36 9 -46 21 -40 42 -93 48 -123 3 -18 12
-45 20 -59 7 -14 13 -48 13 -77 0 -28 5 -55 10 -58 6 -3 10 -28 10 -55 0 -27
-4 -52 -10 -55 -5 -3 -10 -30 -10 -58 0 -70 -43 -242 -69 -278 -11 -15 -21
-31 -21 -35 0 -3 -14 -24 -31 -45 -20 -26 -56 -52 -105 -76 -74 -36 -75 -36
-174 -30 -54 3 -132 14 -172 26 -40 11 -136 32 -213 46 -76 14 -142 30 -145
35 -13 22 -122 34 -295 33 -923 -5 -1118 -10 -1130 -26 -7 -10 -23 -17 -36
-17 -110 0 -414 -110 -494 -179 -11 -9 -51 -33 -90 -52 -38 -18 -72 -37 -73
-42 -2 -4 -29 -19 -60 -33 -32 -14 -102 -48 -157 -75 -55 -27 -106 -49 -114
-49 -15 0 -139 -36 -176 -51 -22 -8 -71 -17 -150 -26 -27 -3 -56 -10 -63 -15
-8 -7 -237 -14 -658 -19 -550 -7 -648 -11 -667 -24 -30 -21 -412 -22 -442 -1
-11 7 -54 16 -95 20 -71 7 -178 35 -224 60 -102 55 -179 122 -202 176 -9 19
-20 43 -25 52 -12 24 -12 145 1 153 6 3 10 19 10 36 0 16 5 29 10 29 6 0 10
14 10 30 0 20 6 33 18 37 9 4 32 19 49 34 18 15 50 31 70 35 21 3 57 15 81 26
23 10 57 21 75 25 17 3 37 10 43 15 15 11 143 27 221 28 34 0 64 4 67 9 3 4
52 11 108 15 57 3 148 9 203 12 55 4 105 10 110 14 6 4 56 11 113 15 56 4 102
11 102 16 0 5 15 9 33 9 18 0 37 4 42 9 6 5 39 12 75 15 36 3 94 8 130 11 36
4 74 10 85 15 11 5 49 11 85 14 98 9 143 16 165 26 11 5 48 11 83 14 34 3 90
9 125 12 34 3 71 9 82 14 11 5 49 11 85 14 36 3 98 9 138 12 40 4 75 11 78 15
3 5 23 9 44 9 52 0 180 20 202 31 10 5 49 9 87 9 39 0 73 5 76 10 3 6 42 10
85 10 43 0 82 5 85 10 3 6 35 10 71 10 50 0 64 3 64 15 0 11 13 15 54 15 30 0
58 5 61 10 3 6 35 10 71 10 36 0 64 4 64 10 0 6 24 10 54 10 30 0 58 5 61 10
3 6 21 10 40 10 19 0 37 5 40 10 3 6 21 10 39 10 17 0 36 4 42 9 5 5 50 11 99
15 136 8 208 16 230 25 26 11 156 31 200 31 20 0 43 4 53 9 9 5 86 15 170 22
84 7 155 16 158 21 3 4 29 8 57 9 61 1 182 21 193 32 4 4 23 7 43 7 20 0 45 7
55 15 11 8 29 15 41 15 12 0 25 4 31 9 5 4 50 13 99 20 124 17 122 17 195 36
36 9 70 21 76 26 6 5 35 14 64 20 30 6 69 20 87 30 20 12 53 19 83 19 27 0 52
5 55 10 3 6 30 10 60 10 30 0 57 -4 60 -10z m-9610 -1210 c120 -10 426 -81
507 -119 26 -11 54 -21 62 -21 8 0 61 -16 118 -36 57 -19 126 -41 153 -48 28
-8 70 -22 95 -34 25 -11 74 -32 110 -47 36 -15 72 -31 80 -36 8 -5 33 -18 55
-30 22 -12 54 -32 72 -45 17 -13 35 -24 38 -24 28 0 241 -189 281 -249 13 -20
46 -70 75 -111 28 -41 64 -99 80 -130 16 -30 42 -76 58 -101 16 -25 32 -57 36
-70 13 -44 39 -94 52 -102 7 -4 13 -13 13 -20 0 -23 48 -164 73 -213 13 -27
27 -62 31 -79 4 -16 21 -58 37 -92 16 -33 32 -75 36 -93 3 -18 19 -57 34 -88
16 -31 29 -61 29 -68 0 -6 7 -18 16 -25 9 -7 27 -36 40 -64 12 -27 49 -77 81
-111 32 -33 84 -88 116 -122 33 -34 62 -62 66 -62 4 0 28 -21 54 -46 31 -29
47 -54 47 -70 0 -13 5 -24 10 -24 6 0 10 -15 10 -34 0 -19 5 -38 10 -41 6 -3
10 -37 10 -75 0 -38 -4 -72 -10 -75 -5 -3 -10 -24 -10 -45 0 -21 -4 -42 -10
-45 -5 -3 -10 -19 -10 -34 0 -16 -17 -61 -38 -102 -21 -41 -44 -90 -52 -109
-8 -19 -25 -43 -37 -53 -13 -10 -23 -24 -23 -30 0 -7 -12 -26 -28 -42 -15 -17
-31 -38 -37 -47 -27 -44 -100 -145 -114 -158 -9 -8 -23 -28 -31 -45 -8 -16
-28 -43 -45 -60 -17 -16 -41 -51 -54 -77 -13 -27 -28 -48 -33 -48 -4 0 -8 -5
-8 -11 0 -13 -38 -49 -52 -49 -4 0 -8 -6 -8 -12 1 -15 64 -58 85 -58 7 0 15
-7 19 -15 3 -8 12 -15 19 -15 8 0 24 -9 37 -20 13 -11 29 -20 37 -20 7 0 13
-3 13 -8 0 -4 10 -12 23 -19 56 -29 84 -44 112 -63 17 -11 39 -24 50 -29 11
-5 37 -21 58 -35 21 -14 44 -26 50 -26 7 0 18 -5 24 -11 12 -12 17 -15 100
-60 26 -15 64 -36 83 -48 19 -11 46 -26 60 -33 14 -7 53 -29 88 -50 34 -21 66
-38 71 -38 5 0 16 -6 23 -13 13 -13 74 -47 136 -76 17 -8 32 -19 32 -23 0 -4
10 -8 23 -8 12 0 28 -9 35 -20 7 -11 21 -20 32 -20 11 0 20 -4 20 -10 0 -5 11
-12 25 -16 14 -3 25 -10 25 -15 0 -5 7 -9 15 -9 8 0 24 -9 35 -20 11 -11 26
-20 33 -20 7 0 18 -5 24 -11 11 -11 36 -26 78 -49 11 -6 34 -19 50 -30 17 -11
42 -25 58 -31 15 -6 27 -15 27 -19 0 -5 10 -12 23 -16 12 -4 40 -19 62 -33 51
-33 75 -48 100 -61 11 -6 29 -16 40 -23 11 -7 49 -29 85 -50 36 -21 72 -42 80
-47 57 -36 157 -93 174 -101 12 -5 35 -18 51 -29 17 -11 39 -24 50 -29 11 -5
37 -21 58 -35 21 -14 40 -26 44 -26 3 0 39 -20 80 -45 40 -25 76 -45 78 -45 4
0 207 -116 245 -141 8 -5 24 -14 35 -19 11 -6 43 -24 70 -41 28 -16 64 -37 80
-45 17 -8 44 -23 60 -34 17 -11 44 -26 60 -34 17 -8 53 -29 80 -45 28 -17 59
-35 71 -40 19 -9 140 -79 174 -101 8 -6 29 -17 45 -26 17 -8 53 -28 80 -45 28
-16 64 -37 80 -45 17 -8 37 -19 45 -24 23 -15 163 -95 180 -103 8 -4 29 -16
45 -26 17 -11 50 -31 75 -44 25 -14 61 -34 80 -46 19 -11 44 -25 55 -30 12 -5
63 -35 115 -66 52 -31 103 -61 115 -66 11 -5 34 -18 50 -29 17 -11 39 -24 50
-30 11 -6 34 -19 50 -30 17 -11 44 -26 60 -34 17 -8 53 -29 80 -45 28 -17 57
-34 65 -38 18 -8 158 -89 180 -103 8 -6 25 -14 37 -20 12 -5 39 -20 60 -33 21
-13 70 -41 108 -62 39 -21 90 -49 115 -63 25 -13 62 -33 83 -44 20 -11 40 -24
43 -29 3 -5 13 -9 23 -9 10 0 24 -7 31 -15 7 -8 20 -15 30 -15 10 0 23 -7 30
-15 7 -8 20 -15 29 -15 21 0 71 22 71 32 0 3 26 19 58 33 31 15 98 47 147 70
50 24 115 50 145 60 30 9 63 20 72 26 10 5 31 9 47 9 17 0 32 4 35 9 4 5 30
14 59 20 97 21 192 46 197 53 3 3 48 9 100 11 52 3 118 10 145 17 28 7 111 14
185 17 74 2 139 9 144 14 6 5 38 9 73 9 35 0 63 4 63 10 0 6 24 10 54 10 30 0
58 5 61 10 3 6 17 10 31 10 13 0 24 5 24 10 0 6 13 10 29 10 17 0 33 5 36 10
3 6 17 10 31 10 13 0 24 5 24 10 0 6 15 10 34 10 19 0 38 5 41 10 3 6 17 10
31 10 13 0 24 5 24 10 0 6 13 10 29 10 17 0 33 5 36 10 3 6 17 10 31 10 13 0
24 5 24 10 0 6 13 10 29 10 17 0 33 5 36 10 3 6 24 10 46 10 27 0 42 5 46 16
5 13 7 13 14 2 7 -10 9 -10 9 0 0 8 15 12 43 12 24 0 48 5 55 12 9 9 15 9 24
0 8 -8 50 -12 125 -12 74 0 113 -4 113 -11 0 -16 26 -39 44 -39 9 0 16 -8 16
-20 0 -15 7 -20 25 -20 l25 0 0 -139 c0 -114 -3 -140 -15 -145 -8 -3 -15 -15
-15 -26 0 -11 -3 -20 -7 -20 -13 0 -33 -51 -33 -81 0 -15 -4 -31 -10 -34 -5
-3 -10 -24 -10 -45 0 -21 -4 -42 -10 -45 -5 -3 -10 -30 -10 -60 0 -30 -4 -57
-10 -60 -5 -3 -10 -31 -10 -61 0 -30 -4 -54 -10 -54 -5 0 -10 -20 -10 -44 0
-25 -4 -48 -10 -51 -6 -4 -10 -85 -10 -210 0 -125 4 -206 10 -210 6 -3 10 -28
10 -56 0 -27 5 -49 10 -49 6 0 10 -11 10 -24 0 -13 14 -50 30 -81 17 -31 30
-66 30 -76 0 -10 5 -19 10 -19 6 0 10 -15 10 -34 0 -19 5 -38 10 -41 6 -3 10
-17 10 -31 0 -15 6 -24 15 -24 10 0 15 -10 15 -28 0 -16 8 -34 20 -42 11 -8
20 -25 20 -37 0 -23 13 -40 108 -143 28 -31 52 -64 52 -74 0 -18 63 -86 80
-86 5 0 10 -13 10 -30 0 -23 4 -30 20 -30 14 0 20 -7 20 -23 0 -12 8 -29 19
-36 11 -8 16 -21 14 -32 -4 -14 0 -19 16 -19 14 0 20 4 15 12 -4 7 -3 8 4 4 7
-4 12 -16 12 -26 0 -13 9 -22 25 -26 14 -3 25 -10 25 -15 0 -5 11 -9 24 -9 16
0 26 -7 29 -21 4 -15 11 -19 26 -14 14 4 23 0 31 -15 6 -11 20 -20 30 -20 11
0 20 -4 20 -10 0 -5 25 -21 55 -35 30 -15 55 -31 55 -36 0 -5 11 -9 25 -9 16
0 25 -6 25 -15 0 -9 9 -15 25 -15 14 0 28 -7 31 -15 4 -8 14 -15 24 -15 10 0
20 -7 24 -15 3 -8 17 -15 31 -15 16 0 25 -6 25 -15 0 -9 9 -15 21 -15 15 0 19
5 15 15 -5 13 23 15 209 15 208 0 215 1 215 20 0 17 7 20 45 20 38 0 45 3 45
20 0 16 7 20 38 20 26 0 42 6 52 20 8 12 26 20 42 20 15 0 28 5 28 11 0 20 29
39 59 39 24 0 31 4 31 20 0 13 7 20 20 20 13 0 20 7 20 20 0 13 7 20 20 20 13
0 20 7 20 20 0 11 7 20 15 20 9 0 27 11 40 25 14 13 42 32 62 42 43 19 63 37
63 52 0 6 7 11 15 11 8 0 15 9 15 20 0 13 7 20 20 20 11 0 20 7 20 15 0 9 8
19 18 22 9 4 52 42 94 85 57 57 85 78 104 78 23 0 54 20 54 35 0 3 20 26 45
50 29 30 53 45 70 45 18 0 25 5 25 20 0 13 7 20 20 20 13 0 20 7 20 20 0 13 7
20 20 20 16 0 20 7 20 30 0 17 5 30 11 30 16 0 39 27 39 45 0 13 -6 16 -25 13
-19 -4 -25 -1 -25 13 0 11 5 19 11 19 16 0 39 26 39 44 0 10 -9 16 -25 16 -21
0 -25 5 -25 30 0 17 -4 30 -10 30 -5 0 -10 14 -10 30 0 17 -4 30 -10 30 -5 0
-10 16 -10 36 0 21 -4 33 -10 29 -6 -4 -10 8 -10 29 0 20 -4 36 -10 36 -5 0
-10 18 -10 40 0 33 -3 40 -20 40 -19 0 -20 7 -20 125 0 118 1 125 20 125 13 0
20 7 20 20 0 11 -4 20 -10 20 -19 0 -10 32 10 37 15 4 20 14 20 39 0 18 5 36
10 39 6 3 10 24 10 47 0 31 4 41 20 45 11 3 20 14 20 24 0 13 7 19 23 19 12 0
29 9 37 20 8 11 22 20 32 20 14 0 18 8 18 36 0 27 5 37 20 41 11 3 20 14 20
24 0 11 5 19 10 19 6 0 10 5 10 11 0 5 27 37 60 69 33 32 60 63 60 68 0 5 11
18 25 28 14 11 25 29 25 42 0 15 7 26 19 29 11 3 22 16 25 29 4 13 13 24 21
24 9 0 15 10 15 26 0 18 18 42 60 84 39 39 60 67 60 82 0 13 9 30 20 38 11 8
20 20 20 27 0 7 4 13 8 13 9 0 42 69 42 88 0 5 4 12 8 14 4 2 20 29 36 61 15
31 33 57 39 57 7 0 18 15 26 33 33 80 43 97 56 97 8 0 15 6 15 13 0 13 63 87
74 87 16 0 116 112 116 130 0 13 7 20 20 20 13 0 20 7 20 20 0 17 7 20 40 20
33 0 40 -3 40 -20 0 -15 7 -20 25 -20 18 0 25 5 25 20 0 13 7 20 20 20 13 0
20 7 20 20 0 11 4 20 8 20 4 0 14 -9 22 -20 10 -14 26 -20 52 -20 31 0 38 4
38 20 0 11 4 20 10 20 14 0 82 -39 106 -61 15 -14 35 -19 77 -19 41 0 57 -4
57 -13 0 -25 74 -77 110 -77 13 0 20 -7 20 -20 0 -17 7 -20 53 -20 44 0 58 -4
77 -25 34 -36 77 -55 125 -55 29 0 47 -6 60 -20 10 -11 22 -20 26 -20 10 0 81
-48 89 -59 11 -17 50 -31 84 -31 20 0 36 -4 36 -10 0 -5 7 -10 15 -10 8 0 15
-4 15 -10 0 -5 17 -10 38 -10 22 0 65 -9 97 -20 43 -15 61 -17 71 -9 8 7 29 9
51 5 87 -16 144 -18 158 -6 12 10 28 10 75 0 43 -9 67 -10 87 -2 16 6 60 14
98 17 39 4 89 16 112 26 23 10 55 19 71 19 15 0 37 7 48 15 10 8 29 15 42 15
12 0 22 6 22 13 0 17 75 57 106 57 13 0 32 4 42 9 9 5 31 15 47 22 17 8 37 22
46 31 9 10 27 18 40 18 14 0 31 9 39 20 8 12 26 20 42 20 15 0 30 5 33 10 3 6
17 10 31 10 13 0 24 5 24 10 0 6 15 10 34 10 19 0 38 5 41 10 3 6 17 10 31 10
13 0 24 5 24 10 0 6 42 10 105 10 63 0 105 -4 105 -10 0 -5 11 -10 24 -10 14
0 28 -4 31 -10 3 -5 18 -10 31 -10 17 0 39 -14 63 -39 20 -21 47 -41 59 -45
12 -4 22 -12 22 -17 0 -5 23 -32 50 -60 37 -38 50 -59 50 -80 0 -16 5 -29 10
-29 6 0 10 -13 10 -29 0 -20 6 -30 20 -34 15 -4 20 -14 20 -40 0 -20 4 -38 9
-41 5 -4 14 -39 21 -79 6 -39 16 -80 21 -89 5 -10 9 -40 9 -67 0 -28 4 -52 9
-55 10 -7 19 -59 27 -166 3 -48 11 -79 20 -86 8 -6 14 -22 14 -36 0 -14 8 -36
18 -49 11 -13 22 -37 26 -52 4 -16 22 -50 41 -77 19 -28 35 -53 35 -58 0 -5
14 -21 30 -37 17 -16 30 -34 30 -40 0 -7 8 -19 19 -29 10 -9 29 -38 42 -64 13
-26 29 -51 35 -57 41 -38 211 -347 263 -482 7 -17 19 -34 27 -37 8 -3 14 -12
14 -20 0 -20 110 -243 141 -287 119 -168 290 -288 484 -339 201 -54 237 -61
340 -72 120 -11 347 -4 410 13 22 6 65 17 95 24 30 8 71 18 90 24 50 13 222
90 241 107 8 8 21 14 27 14 7 0 12 4 12 9 0 9 100 61 119 61 6 0 20 5 31 10
11 6 29 15 40 20 11 5 40 10 64 10 25 0 48 -5 51 -10 3 -5 19 -10 36 -10 16 0
37 -4 47 -9 9 -5 43 -21 75 -36 31 -14 57 -30 57 -33 0 -4 15 -13 33 -21 17
-8 46 -26 62 -40 34 -29 70 -51 85 -51 6 0 32 -15 59 -34 56 -39 144 -86 163
-86 7 0 54 -21 103 -46 50 -26 126 -61 170 -79 223 -90 396 -210 469 -324 79
-123 113 -198 157 -346 78 -267 103 -492 103 -940 1 -374 -3 -409 -83 -750
-11 -44 -25 -114 -32 -155 -7 -41 -18 -104 -26 -140 -32 -147 -24 -506 12
-583 8 -15 19 -52 25 -82 6 -30 15 -55 20 -55 5 0 14 -17 20 -37 5 -21 21 -56
34 -78 14 -22 41 -71 61 -110 20 -38 42 -77 49 -85 7 -8 20 -31 29 -50 8 -19
27 -46 41 -59 14 -14 26 -30 26 -37 0 -7 8 -19 18 -26 11 -7 24 -23 30 -34 8
-16 197 -208 285 -291 44 -42 217 -230 217 -237 0 -13 216 -226 230 -226 20 0
40 -27 40 -54 0 -19 5 -26 20 -26 15 0 20 -7 20 -25 0 -20 5 -25 25 -25 18 0
25 -5 25 -20 0 -18 -7 -20 -83 -20 -46 0 -87 -4 -93 -9 -5 -5 -72 -12 -149
-15 -77 -3 -201 -8 -275 -11 -74 -4 -144 -10 -155 -15 -11 -5 -76 -11 -145
-14 -209 -9 -305 -17 -314 -27 -6 -5 -108 -9 -227 -9 -135 0 -220 -4 -224 -10
-3 -5 -42 -10 -85 -10 -43 0 -82 -4 -85 -10 -3 -5 -19 -10 -35 -10 -16 0 -45
-9 -65 -20 -20 -11 -49 -20 -65 -20 -32 0 -70 -17 -83 -37 -4 -7 -14 -13 -21
-13 -7 0 -25 -14 -41 -30 -16 -16 -33 -30 -38 -30 -5 0 -17 -8 -26 -17 -9 -10
-38 -38 -66 -63 -51 -45 -63 -61 -88 -116 -8 -17 -20 -35 -26 -38 -6 -4 -20
-26 -30 -49 -11 -23 -31 -53 -45 -66 -14 -14 -26 -31 -26 -38 0 -8 -8 -17 -17
-20 -10 -4 -31 -17 -46 -30 -16 -13 -35 -23 -42 -23 -8 0 -20 -8 -27 -17 -13
-18 -24 -24 -113 -61 -86 -36 -325 -93 -450 -108 -66 -7 -212 -14 -325 -14
-235 0 -521 -15 -630 -31 -222 -34 -463 -148 -695 -329 -36 -28 -220 -215
-245 -248 -14 -19 -30 -39 -36 -46 -6 -7 -19 -26 -27 -43 -9 -17 -23 -38 -31
-45 -39 -40 -100 -194 -111 -284 -7 -55 12 -211 26 -220 5 -3 9 -13 9 -22 0
-18 77 -174 90 -182 4 -3 30 -32 58 -64 126 -145 271 -239 477 -312 22 -8 48
-19 57 -24 10 -6 27 -10 39 -10 11 0 28 -4 38 -9 9 -6 76 -22 147 -36 212 -44
300 -43 809 5 55 5 163 9 240 10 177 0 231 -12 368 -86 15 -8 27 -22 27 -30 0
-8 7 -17 15 -20 36 -14 50 -74 50 -209 0 -141 -9 -185 -65 -320 -7 -16 -16
-41 -20 -55 -5 -14 -18 -50 -29 -80 -12 -30 -21 -64 -21 -75 -1 -11 -15 -58
-31 -105 -17 -47 -42 -116 -55 -153 -14 -38 -35 -89 -47 -115 -13 -26 -29 -66
-37 -89 -7 -24 -17 -43 -22 -43 -4 0 -8 -5 -8 -10 0 -6 -15 -43 -34 -83 -19
-40 -53 -115 -76 -167 -23 -52 -56 -126 -74 -165 -18 -38 -36 -81 -40 -95 -9
-32 -33 -94 -56 -145 -10 -22 -30 -69 -45 -105 -28 -67 -76 -168 -99 -208 -16
-27 -135 -152 -145 -152 -4 0 -30 -17 -58 -38 -28 -20 -75 -48 -104 -61 -132
-57 -169 -71 -239 -91 -41 -11 -111 -32 -156 -45 -44 -14 -89 -25 -100 -25
-11 0 -24 -4 -29 -9 -10 -9 -94 -22 -256 -42 -137 -16 -258 0 -308 42 -19 16
-41 29 -48 29 -6 0 -24 25 -39 55 -25 52 -26 62 -21 148 3 57 19 147 42 237
32 122 38 163 39 260 1 112 -8 158 -45 220 -5 8 -18 33 -30 54 -12 22 -26 45
-33 51 -6 7 -20 24 -31 40 -22 31 -99 120 -176 204 -27 29 -49 57 -49 62 0 5
-4 9 -9 9 -5 0 -12 9 -16 19 -3 11 -14 23 -24 26 -10 3 -23 15 -29 28 -5 12
-34 52 -64 89 -29 37 -69 90 -88 118 -56 81 -63 91 -96 129 -16 20 -46 61 -66
91 -20 30 -48 66 -62 79 -14 14 -26 32 -26 42 0 9 -7 22 -15 29 -8 7 -15 18
-15 25 0 7 -25 36 -55 64 -30 29 -55 61 -55 72 0 10 -4 19 -10 19 -5 0 -10 14
-10 30 0 17 -4 30 -10 30 -5 0 -10 7 -10 15 0 8 -4 15 -10 15 -5 0 -10 9 -10
20 0 11 5 20 10 20 6 0 10 9 10 19 0 23 40 103 57 114 7 4 15 24 18 45 4 20
18 60 31 88 13 28 24 56 24 61 0 6 6 16 14 22 7 6 19 32 26 56 7 25 16 48 21
50 4 3 15 28 25 57 9 28 25 65 35 82 9 17 32 78 50 136 17 58 35 107 39 110
11 8 40 102 40 131 0 15 4 30 9 33 4 3 13 45 20 93 12 89 3 220 -16 246 -5 7
-18 40 -28 75 -10 34 -22 62 -27 62 -4 0 -8 4 -8 10 0 5 -10 25 -22 44 -13 19
-36 58 -53 86 -28 49 -73 106 -149 190 -46 51 -207 190 -263 227 -105 70 -324
171 -447 207 -221 65 -641 74 -930 20 -43 -8 -136 -19 -205 -25 -106 -10 -143
-9 -227 4 -107 17 -146 31 -239 87 -101 60 -159 131 -245 296 -28 55 -55 106
-60 114 -5 8 -21 41 -36 74 -63 138 -169 265 -278 334 -117 72 -406 152 -555
152 -31 0 -148 9 -261 20 -113 11 -269 23 -347 27 -79 3 -143 10 -143 15 0 4
-61 8 -135 8 -74 0 -135 -4 -135 -8 0 -5 -82 -12 -182 -15 -101 -4 -232 -11
-293 -17 -383 -34 -1063 -61 -1051 -42 3 6 2 13 -3 17 -6 3 -15 -4 -21 -15 -6
-11 -21 -20 -35 -20 -13 0 -25 -4 -27 -8 -1 -5 -37 -25 -78 -46 -41 -20 -84
-42 -95 -48 -37 -21 -50 -28 -80 -42 -16 -8 -52 -29 -80 -45 -27 -16 -72 -41
-100 -56 -27 -14 -66 -35 -85 -47 -19 -11 -55 -31 -80 -45 -70 -38 -142 -78
-180 -102 -19 -11 -46 -26 -60 -32 -13 -5 -27 -13 -30 -17 -3 -4 -16 -13 -30
-19 -14 -7 -47 -26 -75 -42 -27 -17 -59 -35 -70 -40 -11 -5 -54 -29 -95 -53
-41 -24 -82 -47 -90 -51 -8 -4 -22 -11 -30 -17 -22 -14 -162 -95 -180 -103 -8
-4 -28 -16 -45 -27 -16 -11 -43 -26 -60 -34 -16 -8 -52 -29 -80 -45 -27 -17
-59 -35 -70 -40 -12 -5 -63 -35 -115 -66 -52 -31 -103 -61 -115 -66 -11 -5
-27 -13 -35 -19 -40 -25 -155 -93 -174 -101 -12 -5 -28 -13 -36 -19 -27 -18
-170 -100 -175 -100 -2 0 -23 -12 -47 -27 -73 -47 -82 -53 -103 -62 -12 -5
-66 -36 -120 -68 -55 -33 -107 -63 -115 -66 -8 -4 -22 -11 -30 -17 -20 -13
-161 -94 -180 -103 -8 -4 -24 -13 -35 -20 -11 -7 -51 -30 -90 -52 -38 -22 -77
-44 -86 -50 -9 -5 -36 -21 -60 -34 -24 -13 -92 -52 -152 -87 -59 -35 -110 -64
-112 -64 -3 0 -24 -12 -48 -27 -23 -16 -60 -37 -82 -48 -36 -19 -87 -49 -140
-83 -11 -6 -29 -16 -41 -21 -19 -8 -134 -76 -174 -101 -8 -6 -24 -14 -36 -19
-11 -5 -52 -28 -89 -51 -37 -23 -78 -46 -89 -51 -12 -5 -34 -18 -51 -29 -16
-11 -39 -24 -50 -30 -11 -5 -47 -26 -80 -45 -33 -19 -69 -39 -80 -45 -11 -6
-33 -18 -50 -29 -16 -10 -138 -80 -269 -156 -132 -75 -253 -146 -270 -156 -17
-10 -38 -22 -46 -26 -8 -4 -46 -25 -85 -48 -38 -22 -77 -44 -85 -48 -8 -4 -22
-11 -30 -17 -27 -18 -235 -137 -250 -143 -8 -4 -22 -11 -30 -17 -22 -14 -212
-125 -230 -133 -8 -4 -28 -16 -45 -27 -16 -11 -39 -24 -50 -29 -19 -8 -312
-180 -345 -201 -8 -6 -24 -15 -35 -20 -11 -6 -33 -19 -50 -30 -16 -11 -41 -25
-55 -31 -14 -5 -39 -21 -57 -35 -17 -13 -35 -24 -38 -24 -6 0 -111 -62 -173
-102 -15 -10 -36 -22 -47 -27 -12 -5 -27 -16 -34 -25 -7 -9 -20 -16 -27 -16
-8 0 -14 -5 -14 -10 0 -6 -11 -15 -24 -20 -18 -7 -23 -14 -19 -30 3 -12 1 -31
-5 -43 -5 -12 -17 -42 -25 -67 -8 -25 -24 -69 -36 -98 -27 -66 -56 -140 -86
-217 -13 -33 -33 -85 -45 -115 -39 -98 -80 -232 -80 -260 0 -16 -4 -30 -9 -32
-6 -1 -19 -73 -30 -158 -12 -85 -25 -182 -30 -215 -13 -84 -60 -266 -73 -282
-6 -7 -20 -39 -32 -71 -32 -84 -55 -121 -111 -177 -82 -82 -256 -215 -282
-215 -6 0 -13 -3 -15 -7 -9 -21 -394 -183 -468 -198 -19 -4 -55 -13 -80 -21
-116 -35 -393 -54 -501 -34 -76 14 -159 59 -179 95 -46 84 -43 219 8 420 41
158 38 331 -7 425 -12 24 -21 50 -21 57 0 18 -38 16 -56 -2 -9 -8 -24 -15 -35
-15 -10 0 -19 -4 -19 -10 0 -5 -7 -10 -15 -10 -8 0 -41 -13 -72 -29 -32 -16
-65 -32 -73 -35 -8 -4 -35 -17 -59 -31 -24 -14 -50 -25 -57 -25 -7 0 -25 -6
-41 -14 -31 -16 -80 -35 -223 -86 -19 -7 -53 -16 -75 -20 -22 -4 -53 -12 -70
-18 -58 -20 -131 -35 -200 -42 -38 -4 -83 -12 -98 -19 -42 -16 -265 -14 -334
4 -31 8 -75 15 -96 15 -22 0 -62 7 -91 16 -28 9 -73 23 -101 31 -57 17 -178
65 -244 97 -31 15 -45 18 -48 9 -10 -29 -87 -113 -136 -150 -191 -145 -376
-150 -547 -15 -42 33 -131 154 -146 198 -3 10 -19 51 -35 89 -37 93 -65 193
-79 285 -38 260 -61 395 -71 405 -5 5 -9 19 -9 31 0 25 -33 196 -54 284 -41
166 -48 444 -14 538 20 54 63 117 107 157 43 39 184 111 232 119 35 6 37 8 49
63 10 44 14 224 18 721 3 610 -4 893 -24 945 -4 12 -18 17 -48 17 -54 0 -172
18 -194 29 -9 4 -56 28 -104 51 -66 32 -93 51 -107 76 -11 19 -24 34 -29 34
-4 0 -19 26 -31 58 -13 31 -29 71 -36 87 -7 17 -16 46 -20 65 -4 19 -11 40
-16 46 -13 15 -27 222 -38 557 -10 278 -26 430 -62 584 -10 45 -19 90 -19 100
0 10 -7 31 -15 47 -8 15 -15 37 -15 47 0 10 -4 21 -10 24 -5 3 -18 25 -28 48
-27 60 -150 167 -232 202 -70 29 -297 90 -395 105 -33 5 -154 21 -270 35 -115
14 -246 30 -290 35 -44 5 -136 16 -205 25 -214 26 -285 37 -295 46 -5 5 -22 9
-37 9 -16 0 -36 4 -46 9 -22 11 -150 31 -202 31 -21 0 -42 5 -45 10 -3 6 -32
10 -64 10 -31 0 -62 5 -68 11 -18 18 -634 -1 -658 -21 -5 -4 -99 -13 -208 -20
-226 -13 -805 2 -867 23 -26 9 -183 11 -600 9 -437 -2 -608 1 -755 13 -234 19
-405 46 -465 73 -25 11 -59 24 -75 28 -16 4 -48 20 -71 36 -23 15 -46 28 -52
28 -9 0 -82 83 -82 94 0 3 -11 21 -24 41 -32 46 -41 120 -27 228 14 116 85
259 223 447 38 51 80 120 102 167 8 18 20 38 26 45 6 7 25 36 43 65 32 53 49
80 138 233 77 131 399 788 399 814 0 16 82 183 115 233 68 104 173 242 248
326 56 64 304 315 328 333 22 18 132 143 149 172 9 15 25 33 34 41 22 19 86
115 86 130 0 6 4 19 8 29 40 81 52 108 52 114 0 4 11 31 25 60 13 29 38 96 55
148 17 52 37 109 45 125 7 17 26 71 41 120 16 50 36 101 46 114 10 13 18 30
18 38 0 8 9 26 20 40 11 14 20 34 20 43 0 10 6 20 13 23 6 2 29 38 50 78 43
83 50 95 93 159 17 25 35 56 39 69 12 37 95 200 106 206 5 4 30 46 54 95 24
49 49 91 55 95 5 3 10 12 10 20 0 8 12 31 26 52 14 21 33 54 41 73 9 19 29 51
45 71 15 20 28 40 28 43 0 13 228 245 306 312 121 103 292 224 318 224 7 0 18
6 24 13 14 17 229 118 390 183 69 28 159 73 382 193 45 24 208 101 214 101 4
0 32 11 63 26 31 14 70 28 87 31 17 3 33 9 36 12 16 19 138 71 166 71 18 0 36
5 39 10 3 6 21 10 39 10 17 0 36 4 42 9 5 5 39 12 77 15 37 3 97 9 135 12 37
3 71 10 76 15 6 5 32 9 59 9 52 0 136 17 151 31 6 5 25 9 42 9 18 0 36 5 39
10 3 6 21 10 40 10 19 0 37 5 40 10 3 6 19 10 36 10 16 0 38 5 49 10 11 6 29
15 40 20 11 6 42 10 69 10 34 0 51 4 55 15 3 9 18 15 40 15 19 0 38 5 41 10 3
6 33 10 65 10 32 0 62 5 65 10 4 6 68 10 161 10 96 0 154 -4 154 -10 0 -5 11
-10 24 -10 14 0 28 -4 31 -10 3 -5 15 -10 26 -10 14 0 19 -7 19 -25 0 -18 5
-25 20 -25 19 0 20 -7 20 -94 0 -53 -4 -98 -10 -101 -5 -3 -10 -24 -10 -45 0
-21 -4 -42 -10 -45 -5 -3 -10 -30 -10 -60 0 -30 -4 -57 -10 -60 -5 -3 -10 -21
-10 -40 0 -19 -4 -37 -10 -40 -5 -3 -10 -42 -10 -85 0 -43 -4 -82 -10 -85 -6
-4 -10 -103 -10 -266 0 -166 4 -259 10 -259 6 0 10 -22 10 -49 0 -28 5 -53 10
-56 6 -3 10 -21 10 -40 0 -19 5 -37 10 -40 6 -3 10 -14 10 -23 0 -10 9 -24 20
-32 12 -8 20 -26 20 -42 0 -15 5 -30 10 -33 6 -3 10 -17 10 -31 0 -15 6 -24
15 -24 10 0 15 -10 15 -28 0 -16 8 -34 20 -42 12 -9 20 -26 20 -45 0 -19 8
-36 20 -45 11 -8 20 -25 20 -37 0 -16 28 -51 85 -108 47 -47 89 -85 95 -85 5
0 10 -7 10 -15 0 -8 4 -15 9 -15 4 0 12 24 16 53 4 28 9 680 11 1447 1 909 6
1433 13 1505 6 61 11 157 11 215 0 69 6 120 16 150 10 29 14 61 10 90 -5 35
-1 52 14 75 14 21 18 39 14 62 -5 24 -1 39 15 59 16 20 20 35 15 59 -4 22 -1
37 10 48 9 8 16 30 16 47 0 18 6 33 15 36 9 4 15 19 15 38 -1 28 -2 29 -14 14
-9 -13 -27 -18 -61 -18 -39 0 -51 5 -75 30 -15 17 -33 30 -39 30 -6 0 -11 5
-11 10 0 6 -7 10 -15 10 -8 0 -15 -9 -15 -20 0 -13 -7 -20 -20 -20 -13 0 -20
-7 -20 -20 0 -13 -7 -20 -20 -20 -11 0 -20 -6 -21 -12 0 -10 -2 -10 -6 0 -8
20 -21 14 -73 -37 -38 -37 -58 -49 -79 -49 -32 1 -91 -22 -91 -36 0 -23 -117
-92 -143 -83 -7 2 -18 -2 -25 -9 -7 -7 -29 -16 -50 -19 -20 -4 -77 -19 -127
-35 -49 -15 -148 -36 -220 -46 -250 -36 -884 -19 -1120 31 -95 19 -251 44
-360 56 -49 6 -112 14 -140 19 -62 11 -397 30 -527 30 -80 0 -103 4 -140 23
-23 12 -47 28 -51 35 -4 6 -19 12 -33 12 -15 0 -38 14 -59 35 -32 31 -35 40
-35 90 0 30 5 55 10 55 6 0 10 8 10 19 0 31 29 90 55 113 14 12 25 27 25 33 0
24 145 145 174 145 8 0 21 9 29 20 15 21 66 58 107 76 99 45 177 76 250 98 47
15 99 31 116 36 17 6 39 10 50 10 11 0 47 9 80 19 32 10 90 26 127 35 37 8 75
22 83 31 9 8 27 15 42 15 15 0 54 14 87 30 33 17 72 30 87 30 15 0 30 5 33 10
3 6 16 10 28 10 12 0 118 31 237 69 118 38 231 72 250 75 19 3 62 10 94 15 33
6 62 14 65 19 6 9 41 20 131 42 19 5 54 13 76 19 23 6 57 11 77 11 20 0 39 5
42 10 3 6 21 10 40 10 19 0 37 5 40 10 3 6 30 10 59 10 30 0 66 7 82 15 15 7
53 17 83 21 35 4 62 14 72 25 9 11 28 19 42 19 18 0 45 19 91 63 36 35 66 69
66 74 0 17 43 93 52 93 4 0 8 11 8 24 0 14 4 27 9 31 5 3 15 31 21 63 16 85
30 141 51 203 11 30 19 72 19 92 0 20 4 37 9 37 4 0 16 26 26 58 10 31 30 95
46 142 16 47 29 97 29 111 0 14 6 39 14 55 43 85 53 401 16 489 -32 78 -122
255 -129 255 -5 0 -21 29 -36 65 -15 35 -36 72 -46 81 -11 10 -29 38 -40 63
-12 25 -25 53 -30 61 -57 99 -57 240 0 360 11 22 33 44 62 60 25 14 61 35 80
47 19 13 41 23 49 23 9 0 20 4 25 9 10 10 43 20 215 66 52 14 102 30 111 35 9
5 45 14 80 20 35 7 70 15 79 20 32 17 329 74 420 80 147 10 167 10 285 0z
m11520 -513 c152 -28 521 -134 576 -166 9 -5 34 -13 55 -16 22 -4 58 -16 82
-26 24 -11 64 -27 90 -35 26 -9 75 -29 110 -45 35 -16 68 -29 74 -29 5 0 22
-8 36 -19 15 -10 63 -37 107 -61 44 -23 88 -51 98 -61 10 -10 22 -19 26 -19
13 0 200 -192 207 -212 3 -10 9 -18 14 -18 4 0 26 -30 47 -66 21 -36 57 -98
80 -137 23 -40 49 -88 58 -107 8 -19 20 -42 26 -50 5 -8 12 -23 16 -33 3 -10
21 -48 40 -85 19 -37 43 -94 53 -127 10 -33 29 -85 43 -115 14 -30 33 -77 41
-103 9 -26 24 -65 35 -85 10 -20 26 -61 36 -91 10 -29 30 -72 45 -95 15 -22
31 -56 35 -73 3 -18 11 -33 16 -33 5 0 9 -6 9 -13 0 -7 14 -26 30 -42 17 -16
30 -34 30 -39 1 -11 179 -197 263 -274 32 -29 47 -51 47 -67 0 -14 5 -25 10
-25 6 0 10 -24 10 -54 0 -30 5 -58 10 -61 6 -3 10 -28 10 -55 0 -27 -4 -52
-10 -55 -5 -3 -10 -21 -10 -40 0 -19 -4 -37 -10 -40 -5 -3 -10 -21 -10 -39 0
-36 -77 -197 -107 -224 -11 -9 -27 -30 -36 -47 -8 -16 -27 -41 -41 -54 -14
-14 -26 -30 -26 -36 0 -7 -12 -25 -28 -41 -15 -16 -35 -46 -45 -67 -10 -20
-29 -48 -42 -62 -14 -13 -25 -31 -25 -39 0 -8 -8 -21 -18 -28 -11 -7 -21 -18
-23 -25 -2 -6 -37 -45 -76 -86 -40 -41 -73 -83 -73 -93 -1 -23 -28 -57 -53
-67 -9 -3 -21 -17 -26 -29 -10 -25 -44 -68 -55 -68 -4 0 -42 -36 -86 -80 -58
-58 -86 -80 -105 -80 -14 0 -25 -5 -25 -10 0 -6 -11 -22 -25 -35 -13 -14 -29
-25 -35 -25 -5 0 -10 -4 -10 -10 0 -5 -13 -10 -28 -10 -16 0 -34 -8 -42 -20
-8 -11 -26 -20 -40 -20 -14 0 -32 -9 -40 -20 -10 -14 -26 -20 -52 -20 -21 0
-38 -4 -38 -10 0 -5 -11 -10 -25 -10 -14 0 -25 -4 -25 -10 0 -5 -12 -10 -26
-10 -16 0 -37 -12 -54 -30 -21 -23 -37 -30 -64 -30 -20 0 -36 -4 -36 -10 0 -5
-9 -10 -20 -10 -11 0 -20 -5 -20 -11 0 -19 -28 -39 -55 -39 -18 0 -39 -13 -65
-40 -25 -26 -47 -40 -64 -40 -14 0 -26 -4 -26 -10 0 -5 -12 -10 -26 -10 -17 0
-39 -14 -64 -40 -21 -22 -41 -40 -45 -40 -3 0 -15 -9 -27 -20 -12 -11 -28 -20
-35 -20 -7 0 -13 -7 -13 -15 0 -8 -6 -15 -13 -15 -18 0 -67 -24 -67 -32 0 -5
-9 -8 -20 -8 -13 0 -20 -7 -20 -20 0 -13 -7 -20 -20 -20 -13 0 -20 -7 -20 -20
0 -15 -7 -20 -25 -20 -18 0 -25 -5 -25 -20 0 -13 -7 -20 -18 -20 -10 0 -24 -9
-32 -20 -8 -11 -26 -20 -40 -20 -14 0 -32 -9 -40 -20 -8 -11 -25 -20 -38 -20
-24 0 -52 -21 -52 -39 0 -6 -15 -11 -33 -11 -21 0 -38 -7 -47 -20 -8 -11 -26
-20 -40 -20 -14 0 -32 -9 -40 -20 -13 -19 -26 -20 -175 -20 -149 0 -162 1
-175 20 -8 11 -22 20 -32 20 -11 0 -18 7 -18 20 0 15 -7 20 -25 20 -16 0 -25
6 -25 15 0 8 -5 15 -12 15 -20 0 -48 32 -48 57 0 12 -4 23 -10 23 -5 0 -10 14
-10 30 0 23 -4 30 -20 30 -19 0 -20 7 -20 104 0 59 -4 108 -10 111 -5 3 -10
17 -10 31 0 13 -4 24 -10 24 -6 0 -10 31 -10 73 0 61 -3 75 -20 87 -17 12 -20
26 -20 82 0 61 -2 68 -20 68 -17 0 -20 7 -20 39 0 22 -4 43 -10 46 -5 3 -10
15 -10 25 0 10 -6 23 -13 27 -7 4 -21 24 -30 43 -9 19 -28 46 -42 59 -14 13
-25 29 -25 37 0 8 -7 14 -15 14 -9 0 -19 8 -22 17 -16 40 -51 63 -98 63 -25 0
-45 5 -45 10 0 6 -7 10 -15 10 -8 0 -15 5 -15 10 0 6 -11 22 -25 35 -18 19
-35 25 -67 25 -32 0 -47 5 -58 20 -8 11 -22 20 -32 20 -11 0 -18 -7 -18 -20 0
-18 -7 -20 -65 -20 -37 0 -65 -4 -65 -10 0 -5 -13 -10 -30 -10 -16 0 -30 -4
-30 -10 0 -5 -13 -10 -30 -10 -20 0 -30 -5 -30 -15 0 -10 -10 -15 -29 -15 -16
0 -31 -5 -33 -11 -2 -5 -27 -10 -56 -11 -28 0 -55 -4 -58 -9 -3 -5 -16 -9 -29
-9 -13 0 -25 -6 -28 -12 -3 -10 -9 -10 -25 -1 -18 11 -27 10 -57 -7 -29 -16
-54 -20 -130 -20 -52 0 -97 -4 -100 -10 -4 -6 -60 -10 -136 -10 -79 0 -129 4
-129 10 0 6 -36 10 -89 10 -50 0 -93 5 -96 10 -3 6 -18 10 -33 10 -16 0 -34 8
-42 20 -8 11 -25 20 -38 20 -22 0 -52 20 -52 35 0 10 -69 75 -80 75 -5 0 -10
20 -10 45 0 40 -5 51 -42 89 -65 67 -138 153 -138 164 0 5 -25 33 -55 61 -30
29 -55 56 -55 60 0 4 -11 18 -25 31 -14 13 -25 31 -25 41 0 10 -5 21 -10 24
-6 3 -19 25 -30 48 -11 23 -24 49 -29 57 -26 42 -61 126 -61 146 0 12 -6 27
-14 33 -23 19 -37 108 -30 183 4 38 11 71 15 74 5 3 9 15 9 28 0 45 109 129
255 197 50 23 110 52 135 64 25 13 92 34 150 46 88 18 136 22 300 21 107 0
247 -6 310 -12 130 -13 317 -4 367 16 18 8 45 14 60 14 16 0 44 12 63 28 19
16 51 36 70 44 44 21 77 55 85 90 4 15 13 29 20 32 8 3 23 25 34 49 11 25 33
56 48 69 37 32 53 61 53 97 0 17 5 33 10 36 6 3 10 24 10 45 0 21 5 42 10 45
6 3 10 33 10 65 0 32 -4 62 -10 65 -5 3 -10 26 -10 51 0 24 -4 44 -10 44 -5 0
-10 13 -10 28 0 30 -20 82 -32 82 -10 0 -38 67 -38 91 0 10 -8 33 -18 51 -70
126 -89 377 -37 480 8 17 15 36 15 43 0 16 39 90 85 160 30 45 126 134 165
152 19 9 48 26 65 37 34 24 303 117 422 146 159 39 250 49 438 45 101 -1 215
-9 260 -18z m6380 -1657 c3 -5 19 -10 35 -10 50 0 150 -70 150 -105 0 -8 5
-15 10 -15 14 0 12 -86 -2 -113 -36 -63 -107 -117 -155 -117 -13 0 -31 -4 -41
-9 -28 -15 -156 -31 -242 -31 -43 0 -82 -4 -85 -10 -3 -5 -21 -10 -40 -10 -19
0 -37 5 -40 10 -3 6 -26 10 -50 10 -47 0 -128 16 -157 31 -10 5 -27 9 -38 9
-11 0 -36 16 -55 35 -32 31 -35 40 -35 90 0 58 14 85 44 85 9 0 16 5 16 10 0
6 8 10 18 10 10 0 24 9 32 20 8 11 20 20 27 20 7 0 13 5 13 10 0 6 13 10 29
10 17 0 33 5 36 10 3 6 17 10 31 10 13 0 24 5 24 10 0 6 13 10 29 10 17 0 33
5 36 10 3 6 21 10 40 10 19 0 37 5 40 10 4 6 70 10 165 10 95 0 161 -4 165
-10z m-12120 -665 c237 -3 522 -10 634 -16 380 -19 670 -71 704 -126 4 -7 14
-13 20 -13 7 0 20 -8 29 -17 8 -10 30 -31 47 -46 17 -16 31 -33 31 -39 0 -13
26 -38 39 -38 6 0 11 -11 11 -25 0 -13 9 -40 20 -60 13 -23 20 -54 20 -88 0
-29 4 -57 9 -62 13 -14 21 -110 27 -335 3 -107 10 -199 15 -205 5 -5 9 -28 9
-52 0 -24 5 -43 10 -43 6 0 10 -34 10 -81 l0 -81 -47 -44 c-25 -24 -50 -44
-55 -44 -5 0 -28 -9 -50 -20 -23 -11 -54 -20 -69 -20 -15 0 -31 -4 -34 -10 -3
-5 -21 -10 -39 -10 -17 0 -36 -4 -42 -9 -10 -10 -157 -31 -219 -31 -22 0 -46
-5 -51 -10 -17 -17 -718 -46 -1374 -56 -560 -8 -1324 22 -1363 54 -7 6 -75 15
-152 22 -77 6 -148 16 -157 21 -10 5 -40 9 -67 9 -28 0 -53 5 -56 10 -3 6 -24
10 -45 10 -21 0 -42 5 -45 10 -3 6 -18 10 -33 10 -16 0 -34 8 -42 20 -8 11
-22 20 -32 20 -11 0 -18 7 -18 20 0 13 -7 20 -20 20 -13 0 -20 7 -20 18 0 10
9 24 20 32 11 8 20 22 20 32 0 11 14 24 38 35 23 10 44 27 51 44 7 15 25 34
42 41 16 7 29 18 29 25 0 7 11 15 25 19 14 3 25 13 25 20 0 8 15 23 33 34 36
21 137 132 182 200 17 25 35 50 41 55 23 22 66 96 119 205 69 141 70 143 192
324 35 54 154 156 218 189 33 17 85 37 115 44 30 8 73 19 95 25 58 15 333 26
540 22 99 -2 374 -6 610 -9z m9085 -1785 c8 -11 25 -20 38 -20 24 0 52 -21 52
-39 0 -6 11 -11 25 -11 17 0 25 -5 25 -18 0 -10 9 -24 20 -32 15 -11 20 -26
20 -62 0 -41 3 -48 20 -48 13 0 20 -7 20 -20 0 -13 -7 -20 -20 -20 -16 0 -20
-7 -20 -31 0 -19 -8 -38 -19 -48 -10 -9 -21 -28 -23 -41 -2 -20 -10 -26 -35
-28 -18 -2 -33 -7 -33 -13 0 -5 -31 -9 -70 -9 -63 0 -70 -2 -70 -20 0 -18 -7
-20 -74 -20 -50 0 -76 4 -80 13 -5 10 -7 10 -12 0 -3 -8 -25 -13 -53 -13 -35
0 -50 5 -61 20 -8 11 -22 20 -32 20 -11 0 -18 -7 -18 -20 0 -29 -16 -25 -55
15 -22 21 -35 44 -35 60 0 18 -5 25 -20 25 -17 0 -20 7 -20 45 l0 45 40 0 40
0 0 46 c0 44 16 74 39 74 6 0 11 9 11 20 0 11 5 20 10 20 6 0 10 -4 10 -10 0
-15 29 -12 46 4 8 8 14 22 14 30 0 9 8 16 20 16 11 0 20 5 20 11 0 21 29 39
64 39 20 0 36 5 36 10 0 6 9 10 20 10 11 0 20 5 20 10 0 6 28 10 63 10 51 0
65 -4 77 -20z m6455 -2312 c28 -6 55 -15 60 -22 16 -18 53 -36 73 -36 11 0 27
-9 37 -20 10 -11 22 -20 26 -20 25 0 123 -55 158 -89 l41 -39 0 -79 c0 -67 -3
-81 -20 -93 -11 -8 -20 -20 -20 -28 0 -22 -89 -98 -131 -112 -22 -8 -43 -18
-47 -24 -16 -25 -76 -44 -242 -76 -134 -27 -427 -47 -443 -31 -6 6 -51 11
-104 11 -74 0 -100 4 -128 20 -20 11 -42 20 -50 20 -8 0 -15 9 -15 20 0 11 -4
20 -10 20 -5 0 -10 7 -10 15 0 8 -4 15 -10 15 -5 0 -10 13 -10 29 0 17 -4 33
-10 36 -5 3 -10 19 -10 35 0 16 5 32 10 35 6 3 10 18 10 33 0 16 8 34 20 42
11 8 20 19 20 26 0 36 86 138 141 169 61 33 167 83 189 90 14 4 50 19 80 33
84 40 260 49 395 20z m-10701 -1577 c-2 -3 -12 3 -22 13 -16 17 -16 18 5 5 12
-7 20 -15 17 -18z m4866 -7541 c88 -8 193 -38 368 -104 60 -23 174 -84 195
-105 6 -6 18 -11 27 -11 48 -1 247 -165 277 -229 9 -20 25 -43 35 -52 26 -24
26 -164 0 -188 -10 -9 -31 -42 -47 -74 -53 -103 -60 -115 -82 -141 -12 -14
-29 -39 -39 -57 -9 -18 -47 -73 -84 -124 -37 -51 -76 -107 -85 -126 -10 -19
-21 -36 -24 -39 -3 -3 -20 -32 -37 -65 -17 -33 -65 -123 -106 -200 -41 -77
-112 -212 -157 -299 -121 -235 -228 -364 -364 -439 -69 -37 -85 -43 -179 -56
-50 -7 -80 -5 -137 8 -40 9 -75 21 -79 27 -4 5 -26 22 -50 38 -24 16 -56 46
-72 66 -34 42 -130 250 -153 330 -43 151 -87 335 -118 495 -13 72 -48 235 -85
405 -15 69 -31 145 -35 170 -5 25 -13 68 -18 95 -16 81 -12 176 10 266 57 224
173 321 464 385 130 29 406 41 575 24z m-23780 -2170 c0 -17 7 -20 40 -20 33
0 40 -3 40 -20 0 -13 7 -20 20 -20 13 0 20 -7 20 -20 0 -13 7 -20 20 -20 15 0
20 -7 20 -25 0 -20 5 -25 25 -25 16 0 25 -6 25 -16 0 -8 27 -42 60 -74 36 -36
60 -67 60 -80 0 -12 18 -39 40 -60 22 -21 40 -41 40 -45 0 -8 47 -55 55 -55 9
0 94 -93 95 -103 0 -11 26 -37 37 -37 14 0 83 -66 83 -79 0 -6 9 -11 20 -11
24 0 58 -18 81 -42 9 -10 27 -18 40 -18 14 0 31 -9 39 -20 8 -11 25 -20 39
-20 13 0 31 -8 40 -18 15 -16 84 -53 124 -66 9 -3 17 -12 17 -20 0 -7 9 -16
20 -19 11 -3 20 -12 20 -20 0 -8 9 -17 20 -20 12 -3 20 -14 20 -26 0 -12 6
-21 15 -21 9 0 19 -8 22 -17 4 -9 19 -30 35 -47 26 -27 28 -34 28 -117 0 -90
-18 -146 -56 -174 -8 -6 -20 -21 -27 -35 -7 -14 -22 -30 -34 -36 -12 -6 -34
-22 -49 -37 -15 -15 -35 -27 -45 -27 -10 0 -22 -6 -26 -13 -4 -7 -66 -41 -138
-76 -71 -35 -147 -72 -168 -82 -22 -10 -50 -19 -63 -19 -13 0 -39 -9 -59 -20
-20 -11 -49 -20 -65 -20 -16 0 -32 -4 -35 -10 -3 -5 -24 -10 -45 -10 -21 0
-42 -4 -45 -10 -3 -5 -21 -10 -40 -10 -19 0 -37 -4 -40 -10 -3 -5 -21 -10 -40
-10 -20 0 -35 -6 -39 -15 -3 -10 -19 -15 -45 -15 -22 0 -43 -4 -46 -10 -3 -5
-21 -10 -40 -10 -19 0 -37 -4 -40 -10 -3 -5 -26 -10 -51 -10 -24 0 -44 -4 -44
-10 0 -5 -13 -10 -30 -10 -16 0 -30 -4 -30 -10 0 -5 -7 -10 -15 -10 -8 0 -15
-4 -15 -10 0 -5 -13 -10 -29 -10 -17 0 -33 -4 -36 -10 -3 -5 -15 -10 -27 -10
-11 0 -33 -13 -48 -30 -15 -16 -38 -30 -50 -30 -12 0 -35 -13 -50 -30 -15 -16
-33 -30 -39 -30 -6 0 -11 -4 -11 -10 0 -5 -13 -10 -30 -10 -16 0 -30 -5 -30
-11 0 -23 -30 -39 -72 -39 -32 0 -47 -5 -58 -20 -15 -20 -60 -28 -60 -10 0 6
-7 10 -15 10 -8 0 -15 5 -15 10 0 6 -12 10 -26 10 -25 0 -54 20 -54 37 0 5 -9
15 -20 23 -18 13 -20 26 -20 135 0 109 2 122 20 135 11 8 20 22 20 32 0 11 7
18 20 18 13 0 20 7 20 20 0 13 7 20 20 20 13 0 20 7 20 20 0 15 7 20 25 20 18
0 25 5 25 20 0 13 7 20 20 20 13 0 20 7 20 20 0 13 7 20 20 20 15 0 20 7 20
25 0 18 5 25 20 25 15 0 20 7 20 28 0 16 8 34 20 42 11 8 20 26 20 40 0 14 9
32 20 40 16 12 20 26 20 77 0 56 2 63 20 63 20 0 20 7 20 350 0 343 0 350 -20
350 -18 0 -20 7 -20 60 0 53 -2 60 -20 60 -17 0 -20 7 -20 45 0 38 -3 45 -20
45 -17 0 -20 7 -20 40 0 33 3 40 20 40 17 0 20 7 20 40 0 33 3 40 20 40 13 0
20 7 20 20 0 13 7 20 20 20 15 0 20 7 20 25 0 20 5 25 25 25 18 0 25 5 25 20
0 17 7 20 40 20 33 0 40 3 40 20 0 13 7 20 20 20 13 0 20 7 20 20 0 19 7 20
110 20 103 0 110 -1 110 -20z m-950 -370 c0 -13 7 -20 20 -20 15 0 20 -7 20
-25 0 -18 -5 -25 -20 -25 -13 0 -20 -7 -20 -20 0 -15 -7 -20 -25 -20 -18 0
-25 -5 -25 -20 0 -13 -7 -20 -20 -20 -13 0 -20 -7 -20 -20 0 -17 -7 -20 -40
-20 -33 0 -40 -3 -40 -20 0 -13 -7 -20 -20 -20 -13 0 -20 -7 -20 -20 0 -13 -7
-20 -20 -20 -15 0 -20 -7 -20 -25 0 -23 -4 -25 -45 -25 -38 0 -45 -3 -45 -20
0 -17 -7 -20 -40 -20 -33 0 -40 -3 -40 -20 0 -18 -7 -20 -65 -20 -58 0 -65 2
-65 20 0 15 -7 20 -25 20 -24 0 -25 2 -25 65 0 63 1 65 25 65 18 0 25 5 25 20
0 13 7 20 20 20 13 0 20 7 20 20 0 13 7 20 20 20 13 0 20 7 20 20 0 13 7 20
20 20 13 0 20 7 20 20 0 13 7 20 20 20 15 0 20 7 20 25 0 23 4 25 40 25 33 0
40 3 40 20 0 19 7 20 155 20 148 0 155 -1 155 -20z m15635 -1880 c147 -30 332
-74 355 -85 14 -7 48 -17 75 -24 44 -10 78 -22 150 -52 22 -9 98 -28 214 -54
151 -33 372 -28 611 14 30 6 102 15 160 21 58 6 107 15 108 20 5 13 192 13
192 1 0 -5 24 -12 53 -16 83 -10 188 -46 247 -83 60 -39 150 -120 150 -137 0
-5 9 -16 20 -23 11 -7 20 -19 20 -27 0 -8 4 -23 9 -33 54 -105 80 -207 97
-377 8 -77 19 -160 24 -185 6 -29 6 -59 0 -85 -5 -22 -10 -58 -10 -80 0 -49
-37 -172 -62 -204 -10 -13 -18 -30 -18 -37 0 -17 -59 -104 -71 -104 -5 0 -9
-8 -9 -18 0 -10 -12 -29 -26 -43 -15 -13 -37 -41 -50 -61 -13 -21 -30 -38 -37
-38 -7 0 -26 -13 -42 -30 -16 -16 -34 -30 -40 -30 -6 0 -24 -13 -40 -30 -16
-16 -37 -30 -47 -30 -10 0 -18 -4 -18 -9 0 -13 -176 -98 -230 -111 -25 -6 -54
-15 -65 -19 -40 -17 -155 -31 -258 -31 -60 0 -109 -4 -112 -10 -3 -5 -24 -10
-46 -10 -24 0 -47 -7 -59 -18 -11 -10 -36 -24 -56 -31 -34 -12 -84 -52 -84
-66 0 -3 -27 -33 -60 -65 -39 -39 -60 -67 -60 -82 0 -13 -9 -30 -20 -38 -12
-8 -20 -26 -20 -42 0 -15 -4 -28 -10 -28 -5 0 -10 -13 -10 -29 0 -17 -4 -33
-10 -36 -5 -3 -10 -28 -10 -56 0 -37 -4 -49 -15 -49 -11 0 -15 -12 -15 -44 0
-25 -4 -48 -10 -51 -5 -3 -10 -24 -10 -45 0 -21 -4 -42 -10 -45 -5 -3 -10 -21
-10 -40 0 -19 -4 -37 -10 -40 -5 -3 -10 -18 -10 -33 0 -16 -8 -34 -20 -42 -12
-8 -20 -26 -20 -42 0 -15 -4 -28 -10 -28 -5 0 -10 -7 -10 -15 0 -8 -4 -15 -10
-15 -5 0 -10 -6 -10 -14 0 -18 -89 -106 -108 -106 -8 0 -22 -8 -31 -19 -24
-27 -88 -61 -116 -61 -13 0 -40 -9 -60 -20 -20 -11 -51 -20 -70 -20 -18 0 -37
-4 -40 -10 -3 -5 -21 -10 -40 -10 -20 0 -35 -6 -39 -15 -3 -9 -18 -15 -40 -15
-19 0 -38 -4 -41 -10 -3 -5 -19 -10 -36 -10 -16 0 -37 -4 -47 -9 -9 -5 -51
-25 -92 -45 -41 -20 -86 -47 -99 -61 -13 -14 -29 -25 -37 -25 -8 0 -14 -6 -14
-14 0 -8 -13 -27 -30 -43 -16 -15 -30 -34 -30 -41 0 -7 -14 -25 -30 -39 -17
-14 -39 -45 -50 -69 -11 -24 -30 -54 -43 -66 -12 -13 -33 -45 -47 -73 -13 -27
-33 -57 -42 -66 -10 -9 -18 -26 -18 -38 0 -22 -41 -71 -60 -71 -5 0 -10 -4
-10 -10 0 -5 -22 -10 -50 -10 -45 0 -50 -2 -51 -22 l-2 -23 -4 23 c-4 18 -11
22 -44 22 -32 0 -39 3 -39 20 0 13 -7 20 -20 20 -13 0 -20 7 -20 20 0 15 -7
20 -25 20 -17 0 -25 5 -25 18 0 10 -9 24 -20 32 -11 8 -20 19 -20 25 0 6 -9
17 -20 25 -11 8 -20 26 -20 40 0 14 -9 32 -20 40 -11 8 -20 26 -20 40 0 14 -9
32 -20 40 -11 8 -20 25 -20 37 0 13 -4 32 -10 43 -5 11 -14 29 -20 40 -5 11
-10 33 -10 49 0 17 -4 33 -10 36 -5 3 -10 19 -10 35 0 16 -9 45 -20 65 -11 20
-20 51 -20 70 0 18 -4 37 -10 40 -5 3 -10 14 -10 23 0 9 -7 30 -15 46 -8 15
-15 41 -15 57 0 15 -4 31 -10 34 -5 3 -10 17 -10 30 0 13 -5 37 -11 52 -6 15
-15 37 -19 48 -5 11 -11 34 -15 50 -3 17 -17 53 -30 80 -13 28 -34 82 -46 120
-13 41 -33 83 -50 100 -16 17 -29 37 -29 43 0 7 -6 15 -13 18 -8 3 -20 20 -27
39 -8 19 -20 35 -27 35 -7 0 -19 15 -26 33 -8 17 -21 38 -30 46 -10 7 -17 19
-17 25 0 7 -16 27 -35 46 -19 19 -35 39 -35 45 0 6 -13 24 -30 40 -16 16 -30
34 -30 40 0 6 -16 25 -35 44 -19 18 -35 38 -35 45 0 7 -13 24 -28 39 -16 15
-35 43 -42 62 -8 19 -19 35 -26 35 -7 0 -25 26 -39 58 -73 154 -111 228 -122
235 -7 4 -13 23 -13 42 0 19 -4 37 -10 40 -5 3 -10 23 -10 44 0 20 -5 42 -11
48 -16 16 -15 341 0 356 6 6 11 37 11 68 0 32 5 61 10 64 6 3 10 40 10 81 0
57 4 76 15 80 10 4 15 20 15 51 0 147 65 309 162 403 32 30 58 59 58 64 0 16
32 46 49 46 9 0 38 23 66 50 27 28 55 50 62 50 6 0 16 6 20 13 10 16 84 51
148 71 53 16 183 41 300 57 39 5 97 14 130 20 210 37 781 48 930 19z"/>
<path d="M11190 26900 c0 -11 -7 -20 -15 -20 -29 0 -65 -47 -65 -84 0 -19 5
-38 10 -41 6 -3 10 -19 10 -36 0 -16 5 -29 10 -29 6 0 10 -11 10 -25 0 -17 15
-41 45 -70 l44 -45 114 0 c101 0 114 2 127 20 8 12 26 20 42 20 l28 0 0 120 0
121 -35 34 c-19 19 -43 35 -54 35 -11 0 -23 5 -26 10 -4 6 -57 10 -126 10
-112 0 -119 -1 -119 -20z"/>
<path d="M13095 24690 c4 -6 11 -8 16 -5 14 9 11 15 -7 15 -8 0 -12 -5 -9 -10z"/>
<path d="M10460 24504 c0 -8 5 -12 10 -9 6 3 10 10 10 16 0 5 -4 9 -10 9 -5 0
-10 -7 -10 -16z"/>
<path d="M10425 24451 c-6 -11 9 -23 19 -14 9 9 7 23 -3 23 -6 0 -12 -4 -16
-9z"/>
<path d="M10392 24398 c-16 -16 -15 -38 2 -38 20 0 29 17 19 35 -7 12 -12 12
-21 3z"/>
<path d="M18620 21535 c0 -8 4 -15 10 -15 5 0 7 7 4 15 -4 8 -8 15 -10 15 -2
0 -4 -7 -4 -15z"/>
<path d="M21400 19930 c0 -5 5 -10 11 -10 5 0 7 5 4 10 -3 6 -8 10 -11 10 -2
0 -4 -4 -4 -10z"/>
<path d="M21450 19900 c0 -5 7 -10 15 -10 8 0 15 5 15 10 0 6 -7 10 -15 10 -8
0 -15 -4 -15 -10z"/>
<path d="M21515 19870 c-3 -5 1 -10 10 -10 9 0 13 5 10 10 -3 6 -8 10 -10 10
-2 0 -7 -4 -10 -10z"/>
<path d="M21568 19833 c7 -3 16 -2 19 1 4 3 -2 6 -13 5 -11 0 -14 -3 -6 -6z"/>
<path d="M21615 19819 c-10 -15 3 -25 16 -12 7 7 7 13 1 17 -6 3 -14 1 -17 -5z"/>
<path d="M22310 19415 c0 -9 9 -15 21 -15 18 0 19 2 9 15 -7 8 -16 15 -21 15
-5 0 -9 -7 -9 -15z"/>
<path d="M22362 19388 c5 -15 28 -23 28 -10 0 5 -7 13 -16 16 -10 4 -14 1 -12
-6z"/>
<path d="M22410 19350 c0 -5 7 -10 16 -10 8 0 12 5 9 10 -3 6 -10 10 -16 10
-5 0 -9 -4 -9 -10z"/>
<path d="M22470 19320 c0 -5 7 -10 16 -10 8 0 12 5 9 10 -3 6 -10 10 -16 10
-5 0 -9 -4 -9 -10z"/>
<path d="M22530 19290 c0 -5 5 -10 10 -10 6 0 10 5 10 10 0 6 -4 10 -10 10 -5
0 -10 -4 -10 -10z"/>
<path d="M22685 19190 c3 -5 10 -10 16 -10 5 0 9 5 9 10 0 6 -7 10 -16 10 -8
0 -12 -4 -9 -10z"/>
<path d="M22750 19160 c0 -5 5 -10 11 -10 5 0 7 5 4 10 -3 6 -8 10 -11 10 -2
0 -4 -4 -4 -10z"/>
<path d="M14970 11020 c0 -5 5 -10 10 -10 6 0 10 5 10 10 0 6 -4 10 -10 10 -5
0 -10 -4 -10 -10z"/>
<path d="M22620 26400 c-8 -12 -26 -20 -42 -20 -26 0 -28 -3 -28 -40 0 -33 -3
-40 -20 -40 -18 0 -20 -7 -20 -85 0 -78 2 -85 20 -85 13 0 20 -7 20 -20 0 -15
7 -20 28 -20 16 0 34 -8 42 -20 13 -18 26 -20 132 -20 l119 0 44 45 45 44 0
76 0 75 -55 55 c-30 30 -63 55 -74 55 -11 0 -23 5 -26 10 -3 6 -43 10 -88 10
-71 0 -85 -3 -97 -20z"/>
<path d="M33405 34523 c-31 -65 -60 -126 -65 -135 -6 -10 -10 -29 -10 -43 0
-14 -4 -25 -10 -25 -5 0 -10 -11 -10 -24 0 -14 -4 -28 -10 -31 -6 -4 -10 -58
-10 -131 l0 -124 -25 0 c-18 0 -25 -5 -25 -20 0 -13 -7 -20 -19 -20 -11 0 -23
-4 -26 -10 -3 -5 -17 -10 -31 -10 -13 0 -24 -4 -24 -10 0 -6 -38 -10 -94 -10
-53 0 -98 -4 -101 -10 -3 -5 -17 -10 -31 -10 -13 0 -24 -4 -24 -9 0 -5 -42
-12 -92 -14 -114 -6 -158 -15 -158 -33 0 -12 -48 -14 -280 -14 l-280 0 0 25
c0 23 -3 25 -48 25 -36 0 -51 5 -62 20 -8 12 -26 20 -42 20 -15 0 -28 5 -28
10 0 6 -5 10 -11 10 -6 0 -28 18 -49 40 -21 22 -47 40 -58 40 -10 0 -32 12
-48 28 -16 15 -43 33 -59 41 -17 8 -40 26 -51 39 -12 14 -54 41 -93 61 -39 20
-143 73 -232 119 -89 45 -167 82 -175 82 -8 0 -22 8 -33 19 -10 10 -36 24 -57
31 -22 6 -48 15 -59 20 -11 4 -74 25 -140 45 -106 32 -136 37 -260 42 -143 5
-184 0 -340 -42 -80 -22 -272 -124 -365 -195 -82 -62 -220 -195 -260 -249 -14
-19 -36 -46 -50 -60 -36 -37 -130 -181 -130 -198 0 -8 -9 -26 -20 -40 -11 -14
-20 -32 -20 -40 0 -8 -9 -26 -20 -40 -11 -14 -20 -32 -20 -39 0 -8 -4 -22 -9
-32 -26 -52 -51 -114 -51 -127 0 -8 -4 -15 -8 -15 -10 0 -34 -78 -57 -183 -29
-131 -12 -285 45 -397 41 -82 80 -169 80 -180 0 -5 11 -33 24 -62 13 -29 26
-62 29 -73 3 -11 15 -45 27 -75 41 -104 62 -202 64 -295 1 -86 -1 -93 -36
-159 -20 -37 -43 -76 -51 -85 -7 -9 -21 -32 -31 -52 -10 -19 -24 -42 -30 -50
-15 -19 -126 -93 -158 -105 -9 -3 -47 -21 -84 -40 -37 -19 -82 -34 -100 -34
-18 0 -35 -4 -38 -9 -7 -11 -75 -21 -226 -31 -177 -12 -345 -29 -415 -41 -33
-6 -76 -14 -95 -16 -19 -3 -44 -12 -55 -19 -11 -8 -37 -14 -58 -14 -22 0 -65
-13 -100 -29 -34 -16 -84 -37 -112 -46 -27 -9 -59 -22 -70 -29 -11 -7 -37 -19
-59 -26 -21 -7 -59 -26 -83 -44 -25 -17 -54 -36 -65 -43 -12 -6 -36 -25 -54
-42 -18 -17 -36 -31 -41 -31 -12 0 -196 -189 -216 -222 -9 -15 -17 -34 -17
-43 0 -8 -4 -15 -9 -15 -18 0 -41 -63 -41 -111 0 -26 -4 -51 -10 -54 -6 -4
-10 -72 -10 -170 0 -98 4 -166 10 -170 6 -3 10 -24 10 -45 0 -33 6 -43 35 -66
19 -14 35 -33 35 -40 0 -8 6 -14 13 -14 7 0 26 -14 43 -31 65 -69 149 -93 319
-93 122 1 169 6 340 41 224 46 334 63 455 73 74 6 171 18 215 26 84 17 233 61
250 74 6 5 75 29 155 55 80 26 150 51 155 55 6 5 71 29 145 55 180 62 227 65
990 61 652 -3 710 -6 885 -55 75 -21 237 -78 298 -105 80 -35 103 -44 137 -51
19 -4 40 -11 45 -15 30 -23 134 -34 325 -34 192 -1 312 11 345 34 6 4 33 12
60 19 28 6 88 22 135 35 131 37 214 54 345 72 155 21 451 14 640 -16 72 -12
157 -25 190 -30 33 -5 87 -14 120 -19 33 -6 105 -17 159 -26 55 -8 109 -21
120 -28 19 -13 44 -19 146 -34 19 -3 40 -9 45 -13 6 -4 53 -13 105 -20 52 -7
99 -17 104 -21 37 -33 36 -76 36 2151 l0 2160 -589 0 -590 0 -56 -117z m-1285
-1613 c0 -15 7 -20 25 -20 18 0 25 -5 25 -20 0 -13 7 -20 20 -20 13 0 20 -7
20 -20 0 -13 7 -20 20 -20 13 0 20 -7 20 -20 0 -13 7 -20 20 -20 17 0 20 -7
20 -45 0 -38 3 -45 20 -45 13 0 20 -7 20 -20 0 -13 7 -20 20 -20 18 0 20 -7
20 -60 0 -53 -2 -60 -20 -60 -17 0 -20 -7 -20 -40 0 -33 -3 -40 -20 -40 -15 0
-20 -7 -20 -25 0 -22 -4 -25 -40 -25 -36 0 -40 3 -40 25 0 18 -5 25 -20 25
-13 0 -20 7 -20 20 0 15 -7 20 -25 20 -18 0 -25 5 -25 20 0 13 -7 20 -20 20
-13 0 -20 7 -20 20 0 13 -7 20 -20 20 -17 0 -20 7 -20 40 0 33 -3 40 -20 40
-19 0 -20 7 -20 145 l0 145 60 0 c53 0 60 -2 60 -20z"/>
<path d="M18650 34594 c-8 -2 -87 -8 -175 -13 -88 -6 -194 -15 -235 -20 -41
-6 -120 -15 -175 -22 -137 -15 -351 -67 -417 -100 -21 -11 -44 -19 -52 -19 -8
0 -16 -3 -18 -7 -1 -5 -37 -26 -78 -47 -41 -22 -106 -64 -145 -95 -38 -31 -81
-65 -94 -76 -14 -11 -72 -65 -129 -120 -57 -55 -112 -101 -123 -103 -10 -2
-19 -10 -19 -18 0 -8 -8 -18 -17 -21 -18 -7 -83 -68 -83 -78 0 -3 -31 -37 -70
-75 -70 -69 -70 -69 -70 -125 0 -48 2 -55 20 -55 17 0 20 -7 20 -45 0 -38 3
-45 20 -45 13 0 20 -7 20 -20 0 -15 7 -20 28 -20 16 0 34 -8 42 -20 8 -11 26
-20 40 -20 14 0 32 -9 40 -20 9 -13 26 -20 47 -20 18 0 33 -4 33 -10 0 -5 11
-10 24 -10 14 0 28 -4 31 -10 3 -5 37 -10 76 -10 44 0 69 -4 69 -11 0 -8 51
-9 183 -4 299 13 685 11 747 -4 30 -7 75 -16 100 -20 25 -4 65 -15 90 -24 25
-9 53 -17 63 -17 9 0 17 -4 17 -9 0 -5 23 -14 51 -20 27 -6 69 -19 92 -30 23
-10 67 -26 97 -36 30 -9 83 -30 117 -46 34 -16 73 -29 87 -29 14 0 28 -4 31
-10 3 -5 24 -10 45 -10 21 0 42 -4 45 -10 4 -6 72 -10 170 -10 98 0 166 4 170
10 3 6 28 10 55 10 31 0 63 8 85 20 20 11 46 20 59 20 35 0 88 25 115 54 14
14 30 26 36 26 6 0 25 16 41 35 16 20 50 57 77 83 26 26 47 52 47 58 0 7 11
19 25 28 14 10 30 28 35 42 5 13 16 24 25 24 8 0 15 5 15 11 0 6 14 27 30 46
17 18 30 40 30 47 0 7 12 23 26 37 14 13 30 34 35 47 5 12 14 22 21 22 7 0 19
15 27 33 8 17 29 45 48 60 27 23 33 36 33 67 0 21 5 42 10 45 19 12 10 73 -22
134 -59 114 -151 197 -370 332 -295 182 -576 251 -1013 248 -93 -1 -177 -3
-185 -5z"/>
<path d="M19815 32077 c-22 -12 -50 -32 -62 -44 -13 -12 -40 -30 -60 -40 -21
-9 -55 -34 -75 -55 -20 -21 -41 -38 -47 -38 -6 0 -11 -14 -11 -30 0 -23 -6
-33 -25 -40 -14 -5 -28 -17 -31 -25 -4 -8 -13 -15 -21 -15 -21 0 -43 -25 -43
-50 0 -13 -8 -24 -20 -27 -15 -4 -20 -14 -20 -42 0 -25 -6 -41 -20 -51 -18
-13 -20 -26 -20 -115 0 -89 2 -102 20 -115 15 -11 20 -26 20 -62 0 -41 3 -48
20 -48 18 0 20 -7 20 -85 0 -78 2 -85 20 -85 11 0 20 -7 20 -15 0 -17 84 -105
100 -105 5 0 10 -5 10 -11 0 -31 29 -39 144 -39 66 0 117 4 121 10 3 6 19 10
36 10 17 0 29 5 29 13 0 21 45 40 78 34 20 -4 44 2 77 19 27 13 57 24 67 24
10 0 18 3 18 8 0 10 50 32 72 32 10 0 18 5 18 10 0 6 14 10 30 10 21 0 30 5
30 16 0 9 8 18 18 21 10 2 30 32 47 69 16 36 40 75 52 86 13 12 23 28 23 35 0
8 6 16 14 19 8 3 16 14 19 25 3 10 12 19 21 19 11 0 16 9 16 28 0 16 8 34 20
42 12 8 20 26 20 42 0 15 5 28 10 28 6 0 10 13 10 29 0 17 5 33 10 36 6 3 10
33 10 65 0 32 -4 62 -10 65 -5 3 -10 17 -10 31 0 13 -4 24 -10 24 -5 0 -10 14
-10 30 0 17 -4 30 -10 30 -5 0 -10 5 -10 11 0 6 -17 27 -39 47 -143 137 -162
152 -186 152 -14 0 -25 5 -25 10 0 6 -11 10 -24 10 -14 0 -28 5 -31 10 -4 6
-78 10 -193 9 -172 -1 -190 -3 -227 -22z"/>
<path d="M32935 926 c-72 -21 -215 -99 -215 -117 0 -5 -7 -9 -15 -9 -8 0 -42
-24 -75 -52 -56 -50 -108 -93 -189 -156 -18 -15 -48 -36 -66 -47 -18 -11 -65
-42 -103 -70 -39 -27 -106 -72 -149 -98 -43 -27 -92 -58 -110 -70 -43 -30
-140 -90 -183 -113 -19 -10 -36 -22 -38 -26 -2 -5 -9 -8 -16 -8 -7 0 -64 -36
-126 -80 l-113 -80 1187 0 c652 0 1186 2 1186 5 0 8 -154 260 -174 285 -7 8
-41 60 -75 114 -140 221 -354 448 -458 485 -32 12 -66 26 -76 31 -31 18 -138
21 -192 6z"/>
<path d="M16652 190 c-64 -14 -138 -43 -254 -101 -191 -96 -210 -89 251 -89
220 0 401 3 401 7 0 3 -7 13 -15 22 -8 9 -31 35 -51 59 -73 84 -211 127 -332
102z"/>
</g>
</svg>
